<svg xmlns="http://www.w3.org/2000/svg" viewBox="0 0 1920 1080" preserveAspectRatio="xMidYMid slice">
  <!-- Jungfrau (4158m) - Real topographic contours from swisstopo -->
  <!-- Generated from swissALTI3D elevation data -->
  <path d="M0.0 966.2 L6.2 964.8 L31.6 946.8 L51.2 942.7 L58.2 936.0 L59.2 932.4 L56.2 928.8 L59.5 925.2 L83.2 924.0 L89.6 926.5 L116.4 918.0 L120.2 914.4 L116.8 907.2 L119.8 896.4 L119.5 874.8 L123.3 871.2 L124.3 864.0 L135.3 856.8 L108.8 849.6 L104.2 846.0 L108.8 849.6" fill="none" stroke="#94a3b8" stroke-width="1.2" opacity="0.08"/>
  <path d="M104.2 846.0 L105.2 842.4 L132.9 828.0 L140.8 825.8 L152.8 817.2 L159.3 806.4 L160.3 795.6 L166.4 788.4 L163.6 784.8 L166.4 788.4" fill="none" stroke="#94a3b8" stroke-width="1.2" opacity="0.08"/>
  <path d="M163.6 784.8 L165.1 774.0 L179.8 756.0 L180.6 738.0 L176.5 730.8 L179.4 734.4" fill="none" stroke="#94a3b8" stroke-width="1.2" opacity="0.08"/>
  <path d="M176.5 730.8 L180.5 709.2 L179.6 702.0 L166.4 695.8 L172.8 698.4" fill="none" stroke="#94a3b8" stroke-width="1.2" opacity="0.08"/>
  <path d="M70.6 424.8 L67.5 421.2 L70.6 424.8 L65.8 435.6 L68.3 442.8 L64.4 450.0 L57.3 457.2 L44.8 463.2 L43.1 471.6 L38.4 477.0 L28.3 482.4 L15.6 486.0 L9.5 500.4 L10.8 518.4 L16.5 532.8 L28.6 547.2 L54.8 568.8 L54.7 579.6 L50.5 583.2 L58.7 597.6 L46.9 626.4 L42.1 658.8 L44.0 662.4 L70.4 671.3 L89.6 671.1 L108.8 667.6 L121.6 668.0 L128.0 671.7 L147.2 674.5 L151.9 676.8 L157.2 684.0 L157.7 691.2 L166.4 695.8" fill="none" stroke="#94a3b8" stroke-width="1.2" opacity="0.08"/>
  <path d="M67.5 421.2 L61.3 414.0 L44.8 407.0 L32.0 403.7 L12.8 401.6 L0.0 396.6" fill="none" stroke="#94a3b8" stroke-width="1.2" opacity="0.08"/>
  <path d="M135.0 349.2 L128.3 345.6 L144.0 352.8 L166.4 358.5 L192.0 359.8 L217.6 357.1 L224.0 358.7 L237.5 356.4 L256.0 349.6 L260.3 342.0 L259.9 334.8 L262.4 334.0 L275.2 331.7 L294.8 338.4" fill="none" stroke="#94a3b8" stroke-width="1.2" opacity="0.08"/>
  <path d="M90.1 342.0 L83.2 340.0 L96.0 342.9 L115.2 341.9 L128.3 345.6" fill="none" stroke="#94a3b8" stroke-width="1.2" opacity="0.08"/>
  <path d="M38.7 331.2 L64.0 336.1 L70.4 334.4 L83.2 340.0" fill="none" stroke="#94a3b8" stroke-width="1.2" opacity="0.08"/>
  <path d="M300.8 340.1 L326.4 335.5 L339.2 325.5 L364.8 316.2 L377.6 307.3 L396.8 303.9 L409.6 295.9 L416.6 295.2 L419.6 284.4 L435.9 277.2 L438.0 273.6 L450.0 270.0 L451.6 266.4 L472.0 252.0 L482.6 248.4 L486.4 243.2 L512.0 241.8 L524.8 243.9 L544.0 239.3 L556.8 239.1 L561.1 241.2 L569.6 252.4 L576.0 256.1 L582.4 256.4 L608.0 251.5 L646.4 249.1 L655.5 244.8 L659.1 237.6 L665.6 240.2 L659.3 237.6" fill="none" stroke="#94a3b8" stroke-width="1.2" opacity="0.08"/>
  <path d="M0.0 323.7 L12.8 324.4 L32.0 329.5" fill="none" stroke="#94a3b8" stroke-width="1.2" opacity="0.08"/>
  <path d="M781.2 252.0 L793.6 254.2 L819.2 253.7 L825.6 256.9 L838.4 256.5 L852.4 252.0 L856.7 248.4 L861.7 234.0 L860.1 230.4 L854.1 226.8 L851.6 219.6 L854.0 216.0 L857.6 214.1 L884.4 216.0 L892.3 205.2 L891.7 201.6 L901.2 198.0 L905.3 183.6 L953.6 166.2 L959.1 162.0 L960.0 158.0 L986.4 151.2 L994.2 144.0 L997.3 133.2 L1018.4 126.0 L1024.7 118.8 L1036.8 113.2 L1062.4 111.7 L1068.8 109.2 L1066.9 100.8 L1062.9 97.2 L1056.0 95.8 L1062.9 97.2" fill="none" stroke="#94a3b8" stroke-width="1.2" opacity="0.08"/>
  <path d="M672.5 244.8 L667.7 241.2 L672.5 244.8 L697.6 253.3 L710.4 254.9 L729.6 254.4 L736.0 251.8 L774.4 251.2" fill="none" stroke="#94a3b8" stroke-width="1.2" opacity="0.08"/>
  <path d="M1207.1 3.6 L1205.2 7.2 L1175.8 25.2 L1165.3 39.6 L1145.6 51.9 L1120.0 54.8 L1100.8 49.7 L1091.9 50.4 L1079.2 54.0 L1071.5 61.2 L1049.6 70.0 L1011.2 78.6 L1016.5 82.8 L1042.5 90.0 L1056.0 95.8" fill="none" stroke="#94a3b8" stroke-width="1.2" opacity="0.08"/>
  <path d="M0.0 985.5 L12.8 991.3 L19.2 991.8 L25.6 989.7 L32.0 991.1 L51.2 982.6 L70.4 979.0 L108.8 961.1 L131.9 954.0 L192.0 948.5 L204.8 943.9 L227.3 946.8 L259.3 918.0 L268.9 900.0 L285.3 889.2 L289.2 882.0 L276.4 878.4 L288.0 872.4 L300.6 871.2 L307.2 872.2 L300.9 871.2" fill="none" stroke="#94a3b8" stroke-width="1.2" opacity="0.10"/>
  <path d="M268.7 874.8 L270.8 874.8" fill="none" stroke="#94a3b8" stroke-width="1.2" opacity="0.10"/>
  <path d="M307.2 872.2 L312.8 867.6 L301.4 864.0" fill="none" stroke="#94a3b8" stroke-width="1.2" opacity="0.10"/>
  <path d="M179.5 655.2 L172.8 654.4 L179.5 655.2 L193.7 662.4 L191.5 666.0 L196.9 676.8 L221.9 691.2 L227.2 705.6 L219.7 716.4 L217.6 730.7 L226.1 738.0 L224.7 745.2 L185.8 802.8 L179.2 806.3 L184.7 810.0 L187.1 817.2 L184.5 820.8 L194.2 828.0 L196.5 835.2 L188.1 846.0 L204.8 854.8 L262.4 853.4 L294.4 861.9" fill="none" stroke="#94a3b8" stroke-width="1.2" opacity="0.10"/>
  <path d="M96.2 403.2 L89.6 400.2 L101.5 406.8 L97.0 410.4 L96.6 414.0 L102.1 424.8 L99.2 442.8 L100.6 460.8 L89.6 482.8 L76.9 489.6 L70.9 496.8 L69.1 518.4 L72.3 536.4 L85.2 554.4 L90.7 568.8 L99.3 576.0 L102.8 583.2 L96.6 597.6 L94.8 615.6 L98.8 626.4 L98.8 644.4 L104.3 655.2 L110.2 658.8 L134.4 657.8 L153.6 652.9 L172.8 654.4" fill="none" stroke="#94a3b8" stroke-width="1.2" opacity="0.10"/>
  <path d="M0.0 372.3 L32.0 381.5 L57.6 386.2 L63.3 392.4 L70.4 395.8 L89.6 400.2" fill="none" stroke="#94a3b8" stroke-width="1.2" opacity="0.10"/>
  <path d="M45.0 360.0 L39.7 356.4 L45.0 360.0 L70.4 363.5 L96.0 362.6 L115.2 369.5 L129.5 381.6 L140.8 383.6 L153.6 381.0 L172.8 385.2 L198.4 384.9 L243.2 372.1 L249.6 371.3 L262.4 375.3 L275.2 374.2 L287.8 367.2 L294.9 356.4 L300.8 355.3 L307.2 357.6 L313.6 357.6 L326.4 354.8 L339.2 355.8 L364.8 342.5 L384.0 336.7 L399.3 334.8 L416.0 325.8 L431.4 324.0 L436.3 320.4 L441.7 309.6 L454.6 306.0 L452.4 298.8 L462.3 295.2 L465.5 288.0 L473.6 289.2 L492.1 277.2 L505.6 257.8 L515.8 252.0 L508.8 248.4 L512.0 246.9 L518.4 247.8 L524.8 251.4 L531.3 248.4 L544.0 248.2 L561.4 255.6 L569.6 262.7 L601.6 262.0 L608.0 263.7 L633.6 263.7 L652.8 261.2 L662.9 255.6 L672.0 254.4 L684.8 256.4 L699.9 262.8 L704.0 266.7 L723.2 268.8 L787.2 257.4 L838.4 259.3 L857.6 254.3 L883.2 239.3 L896.0 237.5 L915.2 228.6 L923.3 223.2 L922.7 219.6 L928.8 212.4 L928.0 208.8" fill="none" stroke="#94a3b8" stroke-width="1.2" opacity="0.10"/>
  <path d="M0.0 346.3 L25.6 350.8 L39.7 356.4" fill="none" stroke="#94a3b8" stroke-width="1.2" opacity="0.10"/>
  <path d="M927.6 205.2 L928.0 201.6 L922.6 198.0 L928.0 201.6" fill="none" stroke="#94a3b8" stroke-width="1.2" opacity="0.10"/>
  <path d="M922.6 198.0 L938.7 194.4 L947.2 186.0 L960.0 186.4 L966.4 190.1 L979.2 191.9 L993.3 190.8 L1011.2 186.5 L1030.4 177.6 L1049.6 163.3 L1068.8 155.5 L1081.6 154.1 L1100.8 148.0 L1107.5 140.4 L1098.8 129.6 L1100.2 115.2 L1075.2 98.1 L1047.8 86.4 L1075.2 87.3 L1088.0 85.7 L1108.3 75.6 L1114.3 64.8 L1120.0 62.8 L1158.4 59.7 L1171.2 61.6 L1184.0 60.6 L1196.8 62.0 L1216.9 57.6 L1235.2 43.0 L1249.1 21.6 L1272.4 3.6" fill="none" stroke="#94a3b8" stroke-width="1.2" opacity="0.10"/>
  <path d="M0.0 1077.2 L8.7 1069.2 L0.0 1063.7" fill="none" stroke="#94a3b8" stroke-width="1.1" opacity="0.11"/>
  <path d="M0.0 1026.0 L6.4 1024.4 L38.4 1023.4 L75.1 1015.2 L96.0 1014.9 L153.6 990.4 L198.4 980.0 L201.4 975.6 L198.4 968.4" fill="none" stroke="#94a3b8" stroke-width="1.1" opacity="0.11"/>
  <path d="M243.2 961.2 L268.8 969.1 L275.2 972.9 L288.0 974.0 L371.2 968.3 L409.6 970.3 L441.6 966.2 L459.8 961.2 L471.8 954.0 L477.3 946.8 L487.7 928.8 L488.9 921.6 L485.7 914.4 L467.2 901.2 L448.0 900.1 L449.8 896.4 L460.3 892.8 L461.4 889.2 L454.6 882.0" fill="none" stroke="#94a3b8" stroke-width="1.1" opacity="0.11"/>
  <path d="M197.8 964.8 L204.8 956.9 L211.2 955.7 L224.0 956.1 L236.8 958.8" fill="none" stroke="#94a3b8" stroke-width="1.1" opacity="0.11"/>
  <path d="M403.6 867.6 L428.8 875.3 L450.1 878.4" fill="none" stroke="#94a3b8" stroke-width="1.1" opacity="0.11"/>
  <path d="M358.5 846.0 L352.0 844.6 L358.5 846.0 L377.6 858.1 L396.8 866.6" fill="none" stroke="#94a3b8" stroke-width="1.1" opacity="0.11"/>
  <path d="M288.2 835.2 L326.4 842.9 L345.6 843.0 L352.0 844.6" fill="none" stroke="#94a3b8" stroke-width="1.1" opacity="0.11"/>
  <path d="M236.9 817.2 L233.5 813.6 L236.9 817.2 L235.6 824.4 L239.4 828.0 L281.6 834.1" fill="none" stroke="#94a3b8" stroke-width="1.1" opacity="0.11"/>
  <path d="M1340.3 3.6 L1339.6 7.2 L1328.9 14.4 L1328.6 21.6 L1300.3 36.0 L1288.0 57.6 L1280.0 63.3 L1241.6 71.7 L1228.8 72.5 L1222.4 74.9 L1177.6 75.1 L1158.4 71.2 L1153.2 72.0 L1127.9 93.6 L1113.6 97.2 L1088.0 99.9 L1092.7 108.0 L1104.7 115.2 L1107.2 119.4 L1113.6 122.0 L1120.0 120.4 L1125.6 122.4 L1130.6 129.6 L1119.4 154.8 L1139.7 169.2 L1145.9 176.4 L1139.2 182.9 L1126.7 187.2 L1123.0 194.4 L1107.2 203.7 L1081.6 210.6 L1024.0 213.5 L1004.8 220.2 L985.6 223.5 L947.2 239.1 L928.0 242.8 L921.1 241.2 L906.8 248.4 L889.6 250.4 L823.9 273.6 L808.7 288.0 L778.7 295.2 L761.2 295.2 L729.6 289.0 L716.8 283.8 L704.0 274.3 L691.2 269.0 L678.4 270.2 L672.0 273.6 L640.0 273.5 L633.6 274.9 L614.4 271.2 L582.4 271.5 L563.2 269.1 L550.7 270.0 L524.8 279.7 L518.6 284.4 L519.1 288.0 L512.0 288.7 L507.7 291.6 L504.0 302.4 L492.8 305.5 L467.5 316.8 L468.3 324.0 L458.4 327.6 L458.7 331.2 L454.4 333.9 L441.6 334.6 L435.2 341.3 L428.8 341.8 L423.9 345.6 L416.0 346.8 L409.6 345.2 L390.4 345.8 L384.0 348.6 L380.5 352.8 L355.9 363.6 L346.6 374.4 L327.7 385.2 L307.2 388.4 L288.0 386.3 L281.6 389.6 L268.8 389.6 L229.1 399.6 L217.6 401.0 L179.2 401.8 L158.9 410.4 L147.2 427.8 L129.4 468.0 L101.8 500.4 L99.6 507.6 L104.9 518.4 L99.9 522.0 L104.1 536.4 L103.3 547.2 L106.5 550.8 L118.2 554.4 L118.2 561.6 L136.2 579.6 L134.9 583.2 L145.2 612.0 L142.6 619.2 L128.0 634.6 L126.5 644.4 L140.8 646.5 L160.0 646.0 L172.8 639.9 L198.4 642.5 L247.0 666.0 L251.2 673.2 L248.7 676.8 L262.4 681.2 L267.9 687.6 L270.8 694.8 L255.9 716.4 L260.2 730.8 L269.4 738.0 L266.8 748.8 L258.9 759.6 L231.8 784.8 L226.5 799.2 L215.1 806.4 L229.2 810.0 L233.5 813.6" fill="none" stroke="#94a3b8" stroke-width="1.1" opacity="0.11"/>
  <path d="M76.8 377.6 L89.6 386.1 L95.0 385.2 L89.6 377.3 L76.8 377.6" fill="none" stroke="#94a3b8" stroke-width="1.1" opacity="0.11"/>
  <path d="M31.4 1080.0 L35.9 1072.8 L21.2 1054.8 L10.6 1047.6 L12.8 1042.3 L38.4 1050.7 L76.8 1043.8 L97.6 1033.2 L128.0 1027.5 L147.2 1018.7 L179.2 1011.3 L204.8 1002.4 L217.6 994.2 L256.0 990.0 L262.4 991.2 L281.6 1000.5 L294.4 1002.5 L313.6 1002.5 L352.0 998.7 L396.8 1000.3 L416.0 998.6 L441.6 1001.2 L454.4 1009.9 L460.8 1011.3 L518.4 1015.2 L524.8 1014.2 L544.0 1004.2 L563.2 997.6 L595.2 1000.6 L608.0 997.6 L627.2 1000.4 L652.8 998.0 L665.6 999.1 L678.4 1003.4 L704.0 1002.9 L748.8 981.9 L764.2 972.0 L776.5 957.6 L776.0 936.0 L788.9 910.8 L793.2 907.2 L793.5 903.6 L784.4 896.4 L780.8 889.9 L746.0 874.8 L731.3 860.4 L716.8 855.0 L723.3 856.8" fill="none" stroke="#94a3b8" stroke-width="1.1" opacity="0.13"/>
  <path d="M429.2 831.6 L422.4 830.4 L439.5 835.2 L441.0 838.8 L448.0 840.9 L473.6 841.9 L505.6 832.7 L524.8 824.7 L563.8 820.8 L588.8 825.4 L608.0 832.3 L622.6 835.2 L640.0 846.4 L652.8 851.5 L678.4 855.2 L716.8 855.0" fill="none" stroke="#94a3b8" stroke-width="1.1" opacity="0.13"/>
  <path d="M409.7 828.0 L422.4 830.4" fill="none" stroke="#94a3b8" stroke-width="1.1" opacity="0.13"/>
  <path d="M319.5 824.4 L300.8 821.0 L294.4 815.4 L288.0 815.3 L273.5 810.0 L261.9 802.8 L275.0 784.8 L300.9 763.2 L311.5 745.2 L309.1 734.4 L297.6 720.0 L299.5 712.8 L305.5 709.2 L311.4 684.0 L310.7 676.8 L307.3 673.2" fill="none" stroke="#94a3b8" stroke-width="1.1" opacity="0.13"/>
  <path d="M326.4 825.7 L345.6 820.8 L358.4 819.7 L377.6 821.1 L403.2 826.1" fill="none" stroke="#94a3b8" stroke-width="1.1" opacity="0.13"/>
  <path d="M237.2 637.2 L262.4 648.8 L268.1 655.2 L281.6 656.7 L288.0 662.4 L304.5 669.6" fill="none" stroke="#94a3b8" stroke-width="1.1" opacity="0.13"/>
  <path d="M172.8 604.8 L168.4 615.6 L172.8 620.0 L185.6 624.8 L218.9 626.4 L231.1 633.6" fill="none" stroke="#94a3b8" stroke-width="1.1" opacity="0.13"/>
  <path d="M172.7 601.2 L167.9 594.0 L172.3 590.4 L167.0 568.8 L154.1 565.2" fill="none" stroke="#94a3b8" stroke-width="1.1" opacity="0.13"/>
  <path d="M691.6 284.4 L693.9 288.0 L691.2 284.1 L684.8 285.7 L659.2 280.6 L646.4 285.5 L627.2 284.3 L625.6 291.6 L620.8 294.0 L611.4 295.2 L601.6 302.8 L582.4 310.4 L569.6 313.1 L522.1 316.8 L505.6 330.4 L499.2 331.4 L480.0 344.5 L473.6 345.5 L467.2 349.9 L441.6 351.9 L435.2 360.4 L393.1 378.0 L364.8 384.3 L345.6 395.1 L314.6 399.6 L311.1 406.8 L288.0 416.3 L275.2 416.4 L256.0 412.5 L249.6 414.2 L236.8 413.4 L217.6 420.1 L203.1 421.2 L191.4 432.0 L172.5 475.2 L125.9 525.6 L128.7 529.2 L122.9 540.0 L122.7 547.2 L125.5 550.8 L142.5 558.0 L147.2 562.9" fill="none" stroke="#94a3b8" stroke-width="1.1" opacity="0.13"/>
  <path d="M729.7 298.8 L742.4 302.0 L755.2 301.8 L780.8 304.7 L806.4 310.6 L832.0 311.6 L851.2 314.7 L873.6 313.2 L884.8 309.6 L884.3 302.4 L896.0 298.1 L921.9 277.2 L940.8 267.1 L1004.8 252.5 L1017.6 252.6 L1043.2 256.7 L1088.0 267.2 L1103.0 273.6 L1122.3 288.0 L1139.2 292.5 L1164.8 285.5 L1203.2 288.1 L1222.4 286.3 L1229.1 284.4 L1248.0 270.4 L1244.8 262.8 L1248.2 266.4" fill="none" stroke="#94a3b8" stroke-width="1.1" opacity="0.13"/>
  <path d="M693.9 288.0 L710.4 296.8 L723.2 297.6" fill="none" stroke="#94a3b8" stroke-width="1.1" opacity="0.13"/>
  <path d="M1260.8 230.4 L1255.3 226.8 L1264.3 234.0 L1246.4 244.8 L1240.0 255.6 L1244.8 262.8" fill="none" stroke="#94a3b8" stroke-width="1.1" opacity="0.13"/>
  <path d="M1235.6 216.0 L1255.3 226.8" fill="none" stroke="#94a3b8" stroke-width="1.1" opacity="0.13"/>
  <path d="M1197.0 86.4 L1203.2 88.2 L1196.6 86.4 L1177.6 91.6 L1151.3 111.6 L1156.5 126.0 L1161.7 129.6 L1162.6 133.2 L1158.4 140.6 L1152.6 144.0 L1154.0 172.8 L1228.8 213.2" fill="none" stroke="#94a3b8" stroke-width="1.1" opacity="0.13"/>
  <path d="M1126.4 113.2 L1126.4 115.4 L1126.4 113.2" fill="none" stroke="#94a3b8" stroke-width="1.1" opacity="0.13"/>
  <path d="M1203.2 88.2 L1280.0 83.4 L1296.2 72.0 L1312.0 65.7 L1324.8 63.0 L1337.6 62.9 L1376.0 51.6 L1383.6 43.2 L1378.6 39.6 L1381.8 25.2 L1376.6 18.0 L1391.5 3.6" fill="none" stroke="#94a3b8" stroke-width="1.1" opacity="0.13"/>
  <path d="M111.5 1080.0 L121.6 1076.0 L140.1 1062.0 L151.8 1058.4 L151.9 1054.8 L166.4 1053.5 L185.6 1047.7 L243.2 1046.0 L332.8 1039.3 L358.4 1035.3 L371.2 1030.6 L396.8 1025.3 L422.4 1023.8 L441.6 1025.9 L446.2 1029.6 L441.9 1026.0" fill="none" stroke="#94a3b8" stroke-width="1.1" opacity="0.14"/>
  <path d="M446.2 1029.6 L454.4 1029.6 L460.8 1027.2 L480.0 1030.6 L518.4 1028.6 L550.4 1031.4 L569.6 1030.8 L601.6 1019.8 L614.4 1020.0 L627.2 1016.3 L640.0 1016.3 L652.8 1021.7 L665.6 1022.3 L704.0 1016.6 L742.4 1013.4 L768.0 1013.6 L780.8 1009.8 L793.6 1002.2 L812.8 997.2 L819.8 993.6 L842.7 975.6 L859.5 954.0 L857.6 947.4 L841.1 928.8 L838.4 920.3 L825.6 912.4 L812.8 911.9 L806.4 896.4 L802.2 892.8 L806.4 896.4" fill="none" stroke="#94a3b8" stroke-width="1.1" opacity="0.14"/>
  <path d="M1824.1 943.2 L1819.9 939.6 L1829.8 954.0 L1871.8 982.8 L1875.2 990.1 L1913.6 1012.6" fill="none" stroke="#94a3b8" stroke-width="1.1" opacity="0.14"/>
  <path d="M1913.6 833.4 L1888.0 835.6 L1868.5 853.2 L1854.4 860.4 L1845.0 874.8 L1826.3 882.0 L1834.0 907.2 L1823.5 914.4 L1821.7 921.6 L1814.5 928.8 L1814.3 932.4 L1819.9 939.6" fill="none" stroke="#94a3b8" stroke-width="1.1" opacity="0.14"/>
  <path d="M704.2 817.2 L727.1 820.8 L736.0 825.5 L748.8 827.2 L759.6 835.2 L768.0 838.4 L775.4 849.6 L773.6 853.2 L785.3 864.0 L781.4 878.4 L789.4 889.2 L802.2 892.8" fill="none" stroke="#94a3b8" stroke-width="1.1" opacity="0.14"/>
  <path d="M499.2 792.0 L531.2 789.4 L550.4 790.6 L576.0 786.3 L595.2 786.8 L620.8 790.2 L640.0 788.8 L652.8 793.7 L659.2 794.2 L672.0 801.7 L679.5 813.6 L684.8 815.5 L697.6 816.1" fill="none" stroke="#94a3b8" stroke-width="1.1" opacity="0.14"/>
  <path d="M326.6 644.4 L320.0 642.8 L326.6 644.4 L328.7 651.6 L342.7 658.8 L348.3 669.6 L339.2 678.5 L334.3 687.6 L342.0 694.8 L338.0 702.0 L343.6 705.6 L342.9 720.0 L346.8 723.6 L355.0 745.2 L337.0 766.8 L319.5 781.2 L322.6 802.8 L339.2 805.1 L390.4 797.2 L409.6 796.6 L422.4 793.9 L473.6 789.7 L492.8 792.3" fill="none" stroke="#94a3b8" stroke-width="1.1" opacity="0.14"/>
  <path d="M256.1 622.8 L249.6 620.6 L262.4 626.5 L281.6 630.5 L294.4 638.5 L320.0 642.8" fill="none" stroke="#94a3b8" stroke-width="1.1" opacity="0.14"/>
  <path d="M499.4 363.6 L496.3 360.0 L499.4 363.6 L492.8 367.6 L480.0 369.3 L467.2 378.6 L454.4 382.2 L396.8 391.8 L384.0 397.2 L358.4 401.8 L342.6 410.4 L330.3 414.0 L321.1 428.4 L313.6 434.6 L294.4 443.2 L256.0 438.6 L243.2 440.0 L198.4 453.1 L184.0 464.4 L179.4 471.6 L181.1 478.8 L175.6 482.4 L168.2 496.8 L162.1 500.4 L161.0 511.2 L145.7 525.6 L138.4 540.0 L138.8 547.2 L153.6 557.3 L179.2 557.6 L186.8 561.6 L189.0 572.4 L180.9 579.6 L183.2 583.2 L192.0 584.5 L202.3 590.4 L202.1 601.2 L205.4 604.8 L207.1 619.2 L230.4 619.1 L236.8 622.6 L249.6 620.6" fill="none" stroke="#94a3b8" stroke-width="1.1" opacity="0.14"/>
  <path d="M496.3 360.0 L499.2 352.4 L505.6 353.0 L524.8 350.1 L550.4 341.9 L576.0 339.4 L620.8 326.3 L633.6 327.2 L640.0 325.8 L646.4 320.8 L650.0 313.2 L650.1 302.4 L646.7 298.8 L646.4 291.6 L652.8 291.0 L678.4 295.5 L694.7 302.4 L704.0 303.2 L716.8 307.1 L729.6 313.5 L755.2 312.6 L781.4 316.8" fill="none" stroke="#94a3b8" stroke-width="1.1" opacity="0.14"/>
  <path d="M960.1 302.4 L985.6 296.4 L992.0 297.8 L1011.2 293.5 L1049.6 294.5 L1088.0 292.5 L1100.8 293.4 L1152.0 305.0 L1177.6 318.2 L1210.7 331.2 L1222.4 333.7 L1280.0 325.5 L1292.8 321.9 L1312.0 320.9 L1318.4 318.7 L1327.7 313.2 L1328.9 302.4 L1323.7 295.2 L1326.3 288.0 L1321.4 273.6 L1316.1 270.0 L1304.6 252.0 L1286.4 238.6 L1266.5 219.6 L1254.4 214.8 L1245.9 208.8 L1235.9 190.8 L1225.3 187.2 L1209.6 184.9 L1197.4 187.2" fill="none" stroke="#94a3b8" stroke-width="1.1" opacity="0.14"/>
  <path d="M787.2 317.6 L825.6 319.0 L838.4 323.4 L857.6 324.5 L883.2 323.3 L902.4 320.0 L908.8 320.9 L915.2 318.9 L925.9 309.6 L934.4 309.3 L953.6 303.0" fill="none" stroke="#94a3b8" stroke-width="1.1" opacity="0.14"/>
  <path d="M1448.2 3.6 L1443.7 10.8 L1433.0 18.0 L1427.2 25.1 L1423.2 39.6 L1418.0 46.8 L1408.0 49.2 L1376.0 63.4 L1375.6 72.0 L1363.2 75.1 L1341.9 75.6 L1331.2 82.0 L1322.4 82.8 L1318.4 92.4 L1305.6 96.5 L1280.0 99.8 L1209.6 102.0 L1201.4 104.4 L1185.0 118.8 L1171.0 122.4 L1171.2 126.2 L1176.6 129.6 L1177.5 133.2 L1173.9 136.8 L1176.0 144.0 L1170.6 158.4 L1185.7 176.4 L1182.9 183.6 L1196.5 187.2" fill="none" stroke="#94a3b8" stroke-width="1.1" opacity="0.14"/>
  <path d="M265.2 1080.0 L294.4 1071.9 L332.8 1070.5 L391.8 1065.6 L406.6 1058.4 L449.2 1051.2 L460.8 1047.8 L467.2 1043.7 L473.6 1043.5 L480.0 1045.9 L486.4 1042.9 L524.8 1041.2 L518.6 1040.4" fill="none" stroke="#94a3b8" stroke-width="1.0" opacity="0.16"/>
  <path d="M531.2 1040.3 L524.8 1041.2 L537.6 1039.8 L556.8 1047.3 L595.2 1051.6 L598.8 1051.2 L608.0 1042.2 L627.2 1036.4 L646.4 1035.8 L659.2 1039.5 L653.4 1036.8" fill="none" stroke="#94a3b8" stroke-width="1.0" opacity="0.16"/>
  <path d="M659.2 1039.5 L665.6 1034.6 L684.8 1028.9 L691.2 1032.6 L697.6 1032.9 L716.8 1025.6 L723.2 1027.7 L736.3 1022.4 L742.4 1021.9 L755.2 1027.7 L761.6 1024.3 L806.4 1018.9 L824.2 1011.6 L851.2 1004.0 L862.4 997.2 L873.9 986.4 L881.2 972.0 L881.4 964.8 L885.3 961.2 L885.0 954.0 L892.1 943.2 L890.2 939.6 L892.5 932.4 L885.6 918.0 L864.0 910.3 L851.2 910.9 L844.8 908.2 L838.4 908.0 L841.4 903.6 L838.4 899.2 L819.2 899.9 L805.1 882.0 L805.4 874.8 L794.3 864.0 L800.2 867.6" fill="none" stroke="#94a3b8" stroke-width="1.0" opacity="0.16"/>
  <path d="M1753.8 957.6 L1772.8 965.1 L1782.7 979.2 L1795.8 990.0 L1824.0 999.0 L1871.7 1022.4 L1894.4 1028.2 L1913.6 1035.7" fill="none" stroke="#94a3b8" stroke-width="1.0" opacity="0.16"/>
  <path d="M1728.3 946.8 L1747.2 955.6" fill="none" stroke="#94a3b8" stroke-width="1.0" opacity="0.16"/>
  <path d="M1670.8 928.8 L1689.6 936.2 L1696.0 934.6 L1705.7 936.0 L1721.6 944.2" fill="none" stroke="#94a3b8" stroke-width="1.0" opacity="0.16"/>
  <path d="M1657.2 921.6 L1636.7 910.8 L1626.9 892.8 L1627.0 871.2 L1636.0 820.8 L1630.4 802.8 L1634.1 784.8 L1664.0 777.7 L1708.8 777.2 L1734.4 779.2 L1772.8 777.4 L1792.0 771.6 L1804.8 765.4 L1843.2 761.0 L1888.0 763.6 L1913.6 763.2" fill="none" stroke="#94a3b8" stroke-width="1.0" opacity="0.16"/>
  <path d="M794.3 864.0 L807.7 849.6 L800.0 847.5 L787.2 848.3 L780.8 838.8 L784.2 835.2 L783.4 831.6 L774.4 827.0 L768.0 826.5 L757.9 820.8 L760.4 817.2 L755.2 808.4 L729.8 799.2 L723.2 800.6 L729.8 799.2" fill="none" stroke="#94a3b8" stroke-width="1.0" opacity="0.16"/>
  <path d="M684.8 795.4 L691.2 793.1 L723.2 800.6" fill="none" stroke="#94a3b8" stroke-width="1.0" opacity="0.16"/>
  <path d="M422.4 777.4 L418.2 781.2 L422.4 777.4 L428.8 776.6 L435.2 778.9 L454.4 775.4 L480.0 775.4 L505.6 769.1 L531.2 771.1 L550.4 769.7 L576.0 772.2 L614.4 764.8 L627.2 767.9 L630.0 777.6 L643.4 784.8 L667.8 784.8 L671.5 795.6 L678.4 797.0" fill="none" stroke="#94a3b8" stroke-width="1.0" opacity="0.16"/>
  <path d="M377.7 777.6 L376.1 774.0 L377.7 777.6 L384.0 779.6 L403.2 779.5 L416.0 784.9 L418.2 781.2" fill="none" stroke="#94a3b8" stroke-width="1.0" opacity="0.16"/>
  <path d="M376.1 774.0 L393.7 752.4 L395.9 745.2 L383.5 705.6 L368.5 687.6 L379.1 680.4 L385.5 666.0 L378.8 655.2 L378.2 648.0 L360.6 637.2 L331.6 633.6 L303.7 622.8 L302.9 619.2 L296.2 615.6 L281.6 617.6 L288.0 615.6" fill="none" stroke="#94a3b8" stroke-width="1.0" opacity="0.16"/>
  <path d="M716.8 309.6 L720.1 313.2 L716.8 309.6 L704.0 304.8 L691.2 304.5 L678.4 300.8 L672.7 302.4 L678.6 309.6 L672.5 320.4 L673.5 338.4 L667.9 345.6 L659.2 350.6 L600.5 370.8 L588.8 372.9 L576.0 378.0 L556.8 378.8 L537.6 383.4 L518.4 379.7 L501.5 381.6 L499.2 386.4 L480.0 392.4 L480.0 400.2 L473.6 402.9 L448.0 404.3 L422.4 402.8 L371.5 410.4 L360.9 417.6 L353.6 428.4 L339.2 433.9 L314.8 453.6 L300.8 457.2 L288.0 457.5 L275.2 455.3 L268.8 460.4 L256.0 458.9 L224.0 465.7 L185.6 468.3 L183.6 478.8 L178.7 482.4 L170.9 496.8 L164.7 500.4 L164.1 511.2 L158.3 514.8 L154.6 547.2 L156.7 550.8 L160.0 551.3 L185.6 544.4 L198.4 544.5 L211.2 548.5 L223.7 558.0 L226.6 576.0 L235.5 583.2 L232.1 597.6 L220.4 615.6 L243.2 614.3 L249.6 611.8 L281.6 617.6" fill="none" stroke="#94a3b8" stroke-width="1.0" opacity="0.16"/>
  <path d="M1248.3 345.6 L1269.9 349.2 L1292.8 341.7 L1305.6 340.5 L1346.4 327.6 L1348.3 320.4 L1354.2 316.8 L1355.4 309.6 L1347.1 298.8 L1347.5 277.2 L1333.2 244.8 L1318.4 231.7 L1311.7 226.8 L1286.4 224.7 L1277.9 219.6 L1278.1 194.4 L1265.9 165.6 L1260.2 162.0 L1248.0 159.0 L1228.8 161.3 L1216.0 168.3 L1203.2 172.0 L1200.9 169.2 L1205.6 162.0 L1200.4 154.8 L1206.7 147.6 L1202.4 144.0 L1202.6 140.4 L1191.4 133.2 L1217.8 126.0 L1228.8 116.1 L1260.8 117.0 L1286.4 112.0 L1331.2 110.5 L1356.8 102.9 L1369.6 102.5 L1376.3 97.2 L1374.4 93.6 L1382.4 91.6 L1384.6 86.4 L1400.6 79.2 L1400.3 72.0 L1420.8 61.6 L1452.2 54.0 L1474.5 25.2 L1486.1 21.6 L1486.8 18.0 L1504.3 10.8 L1509.8 7.2 L1510.9 3.6" fill="none" stroke="#94a3b8" stroke-width="1.0" opacity="0.16"/>
  <path d="M1158.7 320.4 L1152.0 317.8 L1169.0 327.6 L1184.0 329.6 L1191.8 334.8 L1203.2 338.6 L1222.4 342.6 L1241.6 343.7" fill="none" stroke="#94a3b8" stroke-width="1.0" opacity="0.16"/>
  <path d="M800.4 331.2 L806.4 328.6 L812.8 329.4 L819.2 333.5 L832.0 336.8 L870.4 338.7 L908.8 335.1 L928.0 339.2 L947.2 329.5 L960.0 326.7 L971.9 320.4 L992.0 315.5 L998.4 312.1 L1030.4 319.4 L1036.8 319.1 L1043.2 315.1 L1068.8 312.6 L1081.6 314.4 L1113.6 310.0 L1152.0 317.8" fill="none" stroke="#94a3b8" stroke-width="1.0" opacity="0.16"/>
  <path d="M720.1 313.2 L723.2 316.9 L729.6 318.9 L755.2 322.3 L768.0 327.6 L787.2 328.0 L799.6 331.2" fill="none" stroke="#94a3b8" stroke-width="1.0" opacity="0.16"/>
  <path d="M453.7 1080.0 L480.0 1067.6 L484.1 1062.0 L505.6 1057.8 L512.0 1054.6 L556.8 1060.9 L563.2 1063.3 L576.0 1059.7 L608.0 1062.3 L627.2 1056.6 L640.0 1056.1 L646.4 1053.7 L665.9 1054.8" fill="none" stroke="#94a3b8" stroke-width="1.0" opacity="0.17"/>
  <path d="M1868.8 1051.2 L1868.7 1047.6 L1873.0 1058.4 L1884.1 1069.2 L1888.4 1080.0" fill="none" stroke="#94a3b8" stroke-width="1.0" opacity="0.17"/>
  <path d="M672.0 1056.0 L678.4 1046.0 L684.8 1045.0 L697.6 1048.0 L702.1 1044.0 L710.4 1041.2 L723.2 1042.9 L742.4 1037.6 L755.2 1044.3 L768.0 1041.2 L774.4 1034.9 L787.2 1036.8 L800.0 1034.1 L819.2 1032.8 L876.8 1007.7 L889.6 998.4 L894.2 990.0 L904.4 982.8 L903.6 979.2 L909.7 975.6 L904.3 968.4 L913.7 961.2 L908.0 950.4 L913.0 946.8 L915.6 939.6 L908.8 936.0 L921.6 932.7 L925.3 928.8 L922.0 918.0 L915.2 915.4 L922.0 918.0" fill="none" stroke="#94a3b8" stroke-width="1.0" opacity="0.17"/>
  <path d="M1868.7 1047.6 L1869.7 1044.0 L1878.6 1040.4 L1856.0 1027.7 L1830.5 1018.8" fill="none" stroke="#94a3b8" stroke-width="1.0" opacity="0.17"/>
  <path d="M1702.8 990.0 L1697.8 986.4 L1708.8 993.4 L1715.2 994.4 L1783.6 997.2 L1802.7 1008.0 L1824.0 1015.9" fill="none" stroke="#94a3b8" stroke-width="1.0" opacity="0.17"/>
  <path d="M1657.8 723.6 L1653.7 720.0 L1657.6 723.7 L1644.8 719.3 L1625.6 718.8 L1620.4 720.0 L1617.3 723.6 L1601.4 727.2 L1538.6 727.2 L1525.5 748.8 L1537.6 770.4 L1535.9 788.4 L1538.9 806.4 L1547.7 831.6 L1555.5 838.8 L1542.4 861.0 L1533.3 864.0 L1541.9 882.0 L1554.3 892.8 L1570.8 900.0 L1593.6 916.6 L1637.2 928.8 L1656.8 939.6 L1677.6 946.8 L1681.9 957.6 L1686.1 961.2 L1696.5 964.8 L1696.3 972.0 L1691.7 975.6 L1697.8 986.4" fill="none" stroke="#94a3b8" stroke-width="1.0" opacity="0.17"/>
  <path d="M825.6 871.2 L819.2 869.9 L825.6 871.2 L825.6 885.7 L851.2 889.6 L857.6 900.3 L864.0 899.8 L876.8 902.4 L889.6 900.6 L896.7 903.6 L896.0 911.3 L915.2 915.4" fill="none" stroke="#94a3b8" stroke-width="1.0" opacity="0.17"/>
  <path d="M800.2 828.0 L793.6 824.9 L806.4 834.2 L825.6 837.0 L832.0 836.4 L835.7 838.8 L823.9 856.8 L816.1 864.0 L819.2 869.9" fill="none" stroke="#94a3b8" stroke-width="1.0" opacity="0.17"/>
  <path d="M1529.6 859.7 L1529.6 861.4 L1531.8 860.4 L1529.6 859.7" fill="none" stroke="#94a3b8" stroke-width="1.0" opacity="0.17"/>
  <path d="M1542.4 845.4 L1542.4 846.6 L1542.4 845.4" fill="none" stroke="#94a3b8" stroke-width="1.0" opacity="0.17"/>
  <path d="M646.4 774.0 L640.0 770.4 L652.8 775.2 L691.2 770.1 L697.6 770.8 L710.4 784.0 L723.2 783.9 L748.8 789.8 L755.2 795.1 L761.6 795.8 L774.4 805.9 L796.6 810.0 L787.2 820.5 L793.6 824.9" fill="none" stroke="#94a3b8" stroke-width="1.0" opacity="0.17"/>
  <path d="M640.0 770.4 L641.8 766.8 L635.7 756.0 L608.0 747.7 L587.9 748.8 L576.0 754.4 L556.8 757.3 L499.2 753.5 L486.8 756.0" fill="none" stroke="#94a3b8" stroke-width="1.0" opacity="0.17"/>
  <path d="M416.2 637.2 L428.8 644.4 L428.9 658.8 L400.6 691.2 L422.7 709.2 L435.8 734.4 L435.8 752.4 L438.3 756.0 L460.8 754.5 L480.0 756.6" fill="none" stroke="#94a3b8" stroke-width="1.0" opacity="0.17"/>
  <path d="M1638.4 722.2 L1630.1 723.6 L1638.4 724.9 L1644.4 723.6 L1638.4 722.2" fill="none" stroke="#94a3b8" stroke-width="1.0" opacity="0.17"/>
  <path d="M1653.7 720.0 L1657.6 718.2 L1670.4 718.6 L1687.0 716.4 L1692.7 712.8 L1690.9 709.2 L1700.5 705.6 L1720.6 684.0 L1734.4 681.4 L1798.4 693.9 L1817.6 691.1 L1849.6 693.6 L1888.0 704.2 L1907.2 706.2 L1913.6 714.3" fill="none" stroke="#94a3b8" stroke-width="1.0" opacity="0.17"/>
  <path d="M352.0 619.2 L371.2 625.8 L377.6 629.9 L409.6 634.8" fill="none" stroke="#94a3b8" stroke-width="1.0" opacity="0.17"/>
  <path d="M998.4 343.0 L1001.8 342.0 L998.4 341.5 L998.4 343.0 L987.8 345.6 L992.0 341.9 L985.6 342.7 L978.0 345.6 L975.6 349.2 L966.4 350.6 L921.6 353.3 L896.0 348.9 L864.0 350.6 L844.8 345.0 L806.4 337.6 L774.4 335.7 L748.8 331.4 L722.7 324.0 L710.4 314.1 L706.3 320.4 L709.1 338.4 L707.3 342.0 L691.2 354.5 L684.6 367.2 L674.3 370.8 L672.0 374.8 L657.4 381.6 L633.6 383.7 L620.8 388.0 L608.0 389.0 L595.2 394.5 L581.9 396.0 L576.8 399.6 L562.4 403.2 L554.8 410.4 L537.6 409.0 L499.2 412.2 L492.8 420.5 L480.0 418.9 L454.4 422.5 L441.6 422.3 L435.2 420.5 L384.0 423.5 L372.2 439.2 L353.2 450.0 L345.6 451.0 L339.2 460.4 L326.4 465.9 L304.1 464.4 L268.8 475.8 L249.6 479.0 L224.0 479.7 L198.4 476.3 L192.0 478.8 L186.7 493.2 L180.4 500.4 L174.4 518.4 L173.6 532.8 L204.8 540.4 L211.2 540.6 L217.6 536.8 L224.0 536.8 L230.4 540.8 L236.8 540.7 L249.6 551.0 L256.0 552.1 L268.4 579.6 L265.5 590.4 L252.3 601.2 L258.5 608.4 L281.6 611.0 L300.8 609.5 L313.6 613.0 L345.6 617.0" fill="none" stroke="#94a3b8" stroke-width="1.0" opacity="0.17"/>
  <path d="M987.8 345.6 L992.0 347.8 L1012.1 345.6 L1013.3 342.0 L1026.5 334.8 L1047.6 327.6 L1068.8 324.2 L1100.8 328.1 L1113.6 327.9 L1126.4 323.2 L1152.0 328.2 L1158.4 330.3 L1164.8 336.7 L1196.8 346.4 L1235.2 351.8 L1260.8 351.8 L1273.6 358.5 L1280.0 359.4 L1292.8 355.8 L1312.0 355.6 L1324.8 352.9 L1335.3 345.6 L1363.2 333.8 L1363.9 324.0 L1375.8 313.2 L1375.9 309.6 L1367.6 302.4 L1369.6 298.7 L1380.2 291.6 L1364.7 284.4 L1362.9 280.8 L1367.5 266.4 L1365.8 259.2 L1368.8 241.2 L1364.9 234.0 L1350.4 224.6 L1331.2 224.8 L1324.8 221.4 L1314.2 219.6 L1313.9 208.8 L1305.6 194.6 L1308.6 180.0 L1306.2 165.6 L1297.7 154.8 L1270.5 140.4 L1271.9 133.2 L1292.8 130.2 L1299.2 127.4 L1344.0 121.9 L1362.5 133.2 L1379.8 140.4 L1395.2 141.8 L1408.0 140.7 L1433.6 137.2 L1449.6 133.2 L1472.0 115.8 L1472.1 108.0 L1465.6 104.9 L1472.1 108.0" fill="none" stroke="#94a3b8" stroke-width="1.0" opacity="0.17"/>
  <path d="M985.6 348.5 L983.3 349.2 L985.6 348.5" fill="none" stroke="#94a3b8" stroke-width="1.0" opacity="0.17"/>
  <path d="M1241.6 140.8 L1235.2 142.3 L1234.8 144.0 L1241.6 146.4 L1246.8 144.0 L1241.6 140.8" fill="none" stroke="#94a3b8" stroke-width="1.0" opacity="0.17"/>
  <path d="M1433.7 93.6 L1427.2 90.9 L1452.8 96.9 L1465.6 104.9" fill="none" stroke="#94a3b8" stroke-width="1.0" opacity="0.17"/>
  <path d="M1552.4 3.6 L1566.6 21.6 L1566.5 25.2 L1560.3 28.8 L1559.4 32.4 L1568.3 43.2 L1568.0 50.8 L1561.6 52.6 L1557.4 57.6 L1542.4 61.5 L1510.4 58.8 L1478.4 63.9 L1452.8 70.3 L1422.6 82.8 L1427.2 90.9" fill="none" stroke="#94a3b8" stroke-width="1.0" opacity="0.17"/>
  <path d="M497.0 1080.0 L505.6 1074.4 L518.4 1070.0 L544.0 1071.7 L563.2 1076.7 L576.0 1076.0 L582.4 1073.0 L595.2 1074.3 L589.2 1072.8" fill="none" stroke="#94a3b8" stroke-width="0.9" opacity="0.19"/>
  <path d="M595.2 1074.3 L611.7 1076.4 L620.6 1080.0 L646.4 1076.6 L659.2 1077.6 L681.2 1069.2 L691.2 1062.2 L697.6 1062.7 L716.8 1055.5 L729.6 1055.7 L736.0 1053.2 L748.8 1054.9 L780.8 1046.5 L787.2 1046.2 L793.6 1048.9 L812.8 1044.7 L832.0 1044.3 L838.4 1042.3 L844.8 1036.7 L907.4 1011.6 L914.0 1000.8 L920.1 997.2 L919.0 990.0 L928.0 985.7 L940.8 975.6 L940.2 964.8 L946.2 961.2 L939.6 950.4 L945.2 939.6 L945.6 928.8 L953.7 921.6 L948.7 918.0 L953.7 921.6" fill="none" stroke="#94a3b8" stroke-width="0.9" opacity="0.19"/>
  <path d="M1828.8 1080.0 L1833.7 1072.8 L1821.7 1044.0 L1822.5 1040.4 L1831.9 1036.8 L1792.0 1022.2 L1779.2 1014.4 L1760.0 1013.0 L1715.2 1003.9 L1696.0 1002.5 L1676.8 997.6 L1659.0 997.2 L1643.4 986.4 L1617.8 957.6 L1611.9 936.0 L1593.6 928.8" fill="none" stroke="#94a3b8" stroke-width="0.9" opacity="0.19"/>
  <path d="M1555.5 914.4 L1587.2 926.3" fill="none" stroke="#94a3b8" stroke-width="0.9" opacity="0.19"/>
  <path d="M948.7 918.0 L953.6 915.0 L953.6 912.6 L940.8 910.2 L947.3 910.8" fill="none" stroke="#94a3b8" stroke-width="0.9" opacity="0.19"/>
  <path d="M1894.8 637.2 L1881.6 630.2 L1836.8 620.8 L1824.0 614.3 L1804.8 608.2 L1747.2 607.0 L1702.4 588.4 L1638.4 593.9 L1600.0 588.3 L1591.3 590.4 L1586.8 594.0 L1585.7 608.4 L1554.3 630.0 L1542.4 635.9 L1534.3 637.2 L1536.6 640.8 L1529.6 646.0 L1516.8 651.8 L1497.6 655.7 L1464.1 669.6 L1433.6 685.1 L1431.2 687.6 L1441.2 709.2 L1438.2 720.0 L1442.4 730.8 L1440.7 745.2 L1414.0 763.2 L1408.2 774.0 L1410.2 792.0 L1420.4 810.0 L1424.9 824.4 L1435.1 838.8 L1436.7 849.6 L1431.9 856.8 L1446.4 865.4 L1486.7 874.8 L1500.2 882.0 L1502.8 885.6 L1516.8 891.8 L1531.2 903.6 L1548.8 911.2" fill="none" stroke="#94a3b8" stroke-width="0.9" opacity="0.19"/>
  <path d="M934.5 907.2 L940.8 910.2" fill="none" stroke="#94a3b8" stroke-width="0.9" opacity="0.19"/>
  <path d="M908.9 892.8 L902.4 889.6 L908.9 892.8 L914.2 903.6 L928.0 905.5" fill="none" stroke="#94a3b8" stroke-width="0.9" opacity="0.19"/>
  <path d="M844.9 856.8 L843.2 853.2 L844.9 856.8 L841.6 860.4 L844.8 873.5 L857.6 873.2 L868.5 878.4 L876.8 878.9 L881.7 885.6 L889.6 885.0 L902.4 889.6" fill="none" stroke="#94a3b8" stroke-width="0.9" opacity="0.19"/>
  <path d="M843.2 853.2 L846.2 846.0 L862.0 828.0 L851.2 824.9 L832.0 824.8 L819.8 820.8 L812.8 821.3 L809.5 817.2 L825.6 801.3 L800.0 796.2 L780.8 799.9 L771.1 788.4 L771.8 784.8 L748.8 772.4 L723.2 765.0 L697.6 762.2 L682.9 756.0 L665.6 757.3 L652.8 753.5 L659.3 756.0" fill="none" stroke="#94a3b8" stroke-width="0.9" opacity="0.19"/>
  <path d="M473.7 734.4 L480.0 739.9 L492.8 741.1 L505.6 738.5 L531.2 745.4 L556.8 747.2 L588.8 745.0 L608.0 741.7 L643.8 748.8 L652.8 753.5" fill="none" stroke="#94a3b8" stroke-width="0.9" opacity="0.19"/>
  <path d="M471.4 730.8 L464.2 712.8 L454.9 702.0 L448.0 697.2 L428.8 694.9 L444.3 680.4 L454.9 666.0 L456.9 658.8 L466.2 651.6 L469.6 644.4 L467.2 638.4 L458.2 630.0 L448.0 625.9 L441.6 624.2 L435.2 626.9 L428.8 626.8 L403.2 622.7 L396.8 617.8 L377.7 612.0 L372.1 608.4 L377.7 612.0" fill="none" stroke="#94a3b8" stroke-width="0.9" opacity="0.19"/>
  <path d="M1446.4 668.6 L1446.4 671.3 L1449.1 669.6 L1446.4 668.6" fill="none" stroke="#94a3b8" stroke-width="0.9" opacity="0.19"/>
  <path d="M1907.4 648.0 L1913.6 654.3" fill="none" stroke="#94a3b8" stroke-width="0.9" opacity="0.19"/>
  <path d="M1900.2 640.8 L1905.0 644.4" fill="none" stroke="#94a3b8" stroke-width="0.9" opacity="0.19"/>
  <path d="M224.3 529.2 L270.4 536.4 L275.2 539.0 L283.7 554.4 L294.4 559.1 L298.5 572.4 L292.0 583.2 L278.8 594.0 L286.8 601.2 L294.4 603.2 L300.8 602.5 L313.6 607.8 L326.4 606.2 L352.0 610.6 L372.1 608.4" fill="none" stroke="#94a3b8" stroke-width="0.9" opacity="0.19"/>
  <path d="M275.5 489.6 L281.6 491.1 L262.4 489.4 L243.2 490.6 L224.0 487.6 L217.6 489.3 L206.3 507.6 L206.1 514.8 L201.8 522.0 L212.2 525.6 L211.2 530.1 L217.7 529.2" fill="none" stroke="#94a3b8" stroke-width="0.9" opacity="0.19"/>
  <path d="M281.6 491.1 L300.8 484.9 L326.4 482.2 L332.8 479.1 L345.6 478.7 L362.1 468.0 L368.5 460.8 L384.0 456.2 L403.2 439.9 L429.2 439.2" fill="none" stroke="#94a3b8" stroke-width="0.9" opacity="0.19"/>
  <path d="M435.2 439.8 L467.2 437.8 L486.4 438.6 L512.0 434.1 L518.4 431.3 L550.4 426.7 L556.8 430.9 L563.2 431.2 L576.0 435.8 L608.0 435.7 L617.6 432.0 L622.6 424.8 L633.5 417.6 L659.2 408.6 L665.6 408.7 L672.0 405.2 L689.7 403.2 L691.2 398.5 L697.6 397.8 L708.2 392.4 L716.2 385.2 L735.2 374.4 L744.2 363.6 L749.7 349.2 L750.0 342.0 L742.5 334.8 L748.8 334.4 L761.6 339.0 L780.8 341.8 L806.4 342.7 L819.2 345.2 L825.6 348.7 L838.4 350.0 L845.9 352.8 L845.9 356.4 L851.2 359.0 L864.0 360.1 L870.4 363.9 L876.8 364.7 L899.1 385.2 L947.2 387.0 L960.0 391.4 L979.2 394.2 L1044.2 388.8 L1056.0 386.1 L1085.6 367.2 L1102.9 349.2 L1113.6 346.3 L1126.4 347.4 L1145.6 333.3 L1151.5 349.2 L1162.2 352.8 L1196.8 351.1 L1216.0 357.3 L1228.8 363.8 L1260.8 362.2 L1267.2 368.9 L1280.0 372.3 L1286.4 370.6 L1318.4 370.8 L1331.2 367.6 L1340.2 363.6 L1340.5 360.0 L1348.4 356.4 L1355.2 349.2 L1376.0 340.0 L1391.0 338.4 L1380.1 327.6 L1381.7 324.0 L1399.1 316.8 L1402.0 313.2 L1400.1 306.0 L1395.3 302.4 L1400.0 298.8 L1400.9 291.6 L1382.4 289.0 L1375.5 284.4 L1399.9 252.0 L1402.5 237.6 L1394.0 226.8 L1376.0 221.0 L1369.6 212.4 L1363.2 210.8 L1349.3 212.4 L1342.1 187.2 L1337.6 183.8 L1337.0 180.0 L1345.3 162.0 L1343.6 144.0 L1350.4 143.4 L1420.8 157.9 L1446.4 155.3 L1472.1 151.2 L1497.6 139.2 L1503.8 133.2 L1497.7 122.4" fill="none" stroke="#94a3b8" stroke-width="0.9" opacity="0.19"/>
  <path d="M640.0 410.0 L637.9 410.4 L640.0 411.3 L640.0 410.0" fill="none" stroke="#94a3b8" stroke-width="0.9" opacity="0.19"/>
  <path d="M1495.1 118.8 L1490.8 111.6 L1491.4 100.8 L1488.8 97.2 L1491.4 100.8" fill="none" stroke="#94a3b8" stroke-width="0.9" opacity="0.19"/>
  <path d="M1517.1 75.6 L1519.0 79.2 L1510.4 71.6 L1498.0 75.6 L1484.8 84.3 L1457.1 86.4 L1478.4 90.6 L1488.8 97.2" fill="none" stroke="#94a3b8" stroke-width="0.9" opacity="0.19"/>
  <path d="M1519.0 79.2 L1523.2 81.7 L1542.4 84.2 L1587.2 84.8 L1608.8 79.2 L1615.3 75.6 L1617.3 64.8 L1614.5 57.6 L1609.5 50.4 L1591.7 36.0 L1597.4 21.6 L1604.9 14.4 L1600.1 7.2 L1602.2 3.6" fill="none" stroke="#94a3b8" stroke-width="0.9" opacity="0.19"/>
  <path d="M700.7 1080.0 L710.4 1071.9 L724.6 1065.6 L736.0 1064.6 L755.2 1066.2 L793.6 1056.7 L832.0 1050.8 L851.2 1050.5 L857.6 1048.8 L883.2 1039.2 L896.0 1028.5 L908.8 1025.6 L921.6 1018.8 L939.9 993.6 L949.1 990.0 L958.6 972.0 L957.6 968.4 L966.6 961.2 L956.2 946.8 L963.6 932.4 L972.8 927.7 L983.8 918.0 L979.8 914.4 L981.9 903.6 L979.2 901.7 L929.9 889.2 L921.6 885.7 L920.9 882.0 L909.3 878.4 L905.5 874.8 L909.3 878.4" fill="none" stroke="#94a3b8" stroke-width="0.9" opacity="0.20"/>
  <path d="M1446.7 871.2 L1440.0 869.9 L1446.7 871.2 L1462.5 885.6 L1474.5 889.2 L1481.2 896.4 L1497.6 906.8 L1563.1 928.8 L1545.3 946.8 L1546.6 954.0 L1561.6 964.0 L1568.9 975.6 L1569.1 982.8 L1588.7 1000.8 L1606.4 1007.0 L1651.2 1007.7 L1708.8 1014.2 L1715.2 1015.4 L1734.4 1026.2 L1754.8 1033.2 L1763.3 1040.4 L1766.1 1047.6 L1762.4 1058.4 L1763.0 1072.8 L1768.1 1080.0" fill="none" stroke="#94a3b8" stroke-width="0.9" opacity="0.20"/>
  <path d="M905.5 874.8 L902.5 871.2" fill="none" stroke="#94a3b8" stroke-width="0.9" opacity="0.20"/>
  <path d="M1433.3 867.6 L1420.8 863.6 L1382.4 856.9 L1369.6 850.5 L1362.1 842.4 L1362.6 838.8 L1350.4 837.2 L1333.8 831.6 L1329.4 795.6 L1303.7 774.0 L1312.0 769.4 L1321.6 759.6 L1325.6 741.6 L1322.2 730.8 L1314.2 720.0 L1291.8 702.0 L1294.2 698.4 L1289.7 691.2 L1318.4 672.6 L1324.5 662.4 L1320.2 658.8 L1331.0 644.4 L1331.0 640.8 L1324.3 633.6 L1299.2 623.6 L1286.6 608.4" fill="none" stroke="#94a3b8" stroke-width="0.9" opacity="0.20"/>
  <path d="M898.3 867.6 L896.2 864.0 L889.6 861.6 L896.2 864.0" fill="none" stroke="#94a3b8" stroke-width="0.9" opacity="0.20"/>
  <path d="M870.4 817.2 L883.2 815.8 L892.9 817.2 L889.6 823.7 L883.7 828.0 L886.6 831.6 L860.4 842.4 L858.9 846.0 L864.4 849.6 L862.9 856.8 L870.4 861.4 L876.8 862.7 L889.6 861.6" fill="none" stroke="#94a3b8" stroke-width="0.9" opacity="0.20"/>
  <path d="M480.5 691.2 L473.6 690.3 L486.4 693.0 L500.7 705.6 L500.7 730.8 L524.8 731.3 L544.0 738.1 L582.4 730.3 L601.6 736.0 L614.4 737.6 L627.2 733.3 L640.0 731.3 L652.8 732.6 L672.0 742.8 L678.4 742.4 L697.6 746.9 L704.0 753.0 L723.2 750.5 L774.4 763.6 L785.4 770.4 L797.4 784.8 L812.8 785.6 L832.0 791.6 L851.2 790.9 L853.5 792.0 L846.7 802.8 L829.8 813.6 L844.8 818.3 L864.0 817.9" fill="none" stroke="#94a3b8" stroke-width="0.9" opacity="0.20"/>
  <path d="M1316.6 763.2 L1312.0 763.1" fill="none" stroke="#94a3b8" stroke-width="0.9" opacity="0.20"/>
  <path d="M390.7 597.6 L428.8 607.4 L435.2 612.4 L454.4 607.4 L457.8 608.4 L476.4 619.2 L484.5 630.0 L496.9 637.2 L494.3 644.4 L507.1 651.6 L508.4 655.2 L480.0 666.0 L478.2 680.4 L471.6 687.6 L473.6 690.3" fill="none" stroke="#94a3b8" stroke-width="0.9" opacity="0.20"/>
  <path d="M1284.8 604.8 L1288.0 590.4 L1295.4 579.6 L1298.3 568.8 L1305.6 563.3 L1318.4 561.5 L1344.0 561.9 L1363.2 558.2 L1379.2 550.8 L1465.6 537.1 L1472.0 534.1 L1478.4 535.0 L1529.6 527.2 L1536.0 527.4 L1548.8 531.9 L1542.8 529.2" fill="none" stroke="#94a3b8" stroke-width="0.9" opacity="0.20"/>
  <path d="M377.7 594.0 L384.0 594.8" fill="none" stroke="#94a3b8" stroke-width="0.9" opacity="0.20"/>
  <path d="M608.4 450.0 L614.4 452.2 L608.0 449.9 L588.8 452.5 L576.0 447.2 L563.2 447.1 L544.0 452.1 L524.8 453.2 L518.4 456.7 L512.0 457.5 L460.8 454.1 L435.2 455.5 L409.6 452.8 L401.9 457.2 L368.3 493.2 L339.2 496.0 L326.4 504.4 L313.6 506.0 L262.4 505.6 L249.6 503.9 L230.4 505.8 L226.6 525.6 L243.2 530.0 L262.4 526.5 L275.2 529.1 L281.6 528.6 L289.8 532.8 L296.6 540.0 L321.8 554.4 L329.8 565.2 L333.0 576.0 L337.5 579.6 L371.2 592.7" fill="none" stroke="#94a3b8" stroke-width="0.9" opacity="0.20"/>
  <path d="M1913.5 576.0 L1907.2 574.0 L1900.8 574.7 L1894.4 571.7 L1888.0 571.1 L1875.6 565.2" fill="none" stroke="#94a3b8" stroke-width="0.9" opacity="0.20"/>
  <path d="M1613.2 547.2 L1651.2 553.7 L1664.0 550.4 L1670.4 552.1 L1689.6 551.1 L1687.4 547.2 L1689.6 546.5 L1715.2 547.8 L1753.6 543.7 L1779.2 551.0 L1804.8 549.7 L1836.8 554.2 L1868.8 563.0" fill="none" stroke="#94a3b8" stroke-width="0.9" opacity="0.20"/>
  <path d="M1548.8 531.9 L1561.6 538.1 L1568.0 538.1 L1574.4 540.5 L1580.8 539.7 L1606.4 545.4" fill="none" stroke="#94a3b8" stroke-width="0.9" opacity="0.20"/>
  <path d="M614.4 452.2 L640.0 456.6 L665.6 456.6 L672.0 452.1 L697.6 448.7 L710.4 442.7 L716.8 443.8 L729.6 438.7 L724.9 442.8 L729.6 445.6 L736.0 445.5 L739.9 442.8 L742.5 435.6 L739.1 432.0 L742.5 435.6" fill="none" stroke="#94a3b8" stroke-width="0.9" opacity="0.20"/>
  <path d="M729.1 432.0 L730.1 432.0" fill="none" stroke="#94a3b8" stroke-width="0.9" opacity="0.20"/>
  <path d="M739.1 432.0 L744.0 428.4 L737.7 424.8 L743.8 421.2 L746.5 406.8 L781.8 374.4 L788.5 363.6 L792.0 349.2 L800.0 348.7 L821.5 356.4 L824.5 363.6 L822.4 370.8 L826.4 378.0 L833.7 385.2 L857.6 398.0 L851.3 396.0" fill="none" stroke="#94a3b8" stroke-width="0.9" opacity="0.20"/>
  <path d="M857.6 398.0 L870.4 401.0 L883.2 401.8 L889.6 400.4 L902.4 407.1 L934.4 410.9 L947.2 410.0 L960.0 412.1 L979.2 410.8 L992.0 412.1 L1030.4 410.2 L1062.4 404.6 L1086.6 396.0 L1120.0 370.2 L1126.4 362.6 L1145.6 356.0 L1158.4 358.7 L1152.4 356.4" fill="none" stroke="#94a3b8" stroke-width="0.9" opacity="0.20"/>
  <path d="M1210.2 363.6 L1203.2 362.5 L1222.4 367.8 L1245.2 370.8 L1244.3 374.4 L1267.2 385.7 L1279.9 381.6 L1286.4 382.8 L1280.2 381.6" fill="none" stroke="#94a3b8" stroke-width="0.9" opacity="0.20"/>
  <path d="M1286.4 382.8 L1299.2 381.9 L1305.6 384.2 L1324.8 384.2 L1357.5 378.0 L1369.1 370.8 L1370.8 360.0 L1382.4 348.8 L1410.4 345.6 L1418.5 342.0 L1412.8 327.6 L1424.5 324.0 L1426.0 316.8 L1430.7 313.2 L1429.0 302.4 L1432.0 291.6 L1420.8 283.7 L1408.0 282.6 L1394.6 284.4 L1398.4 277.2 L1423.6 255.6 L1428.6 244.8 L1427.7 241.2 L1417.2 234.0 L1415.6 230.4 L1408.0 229.4 L1395.3 223.2" fill="none" stroke="#94a3b8" stroke-width="0.9" opacity="0.20"/>
  <path d="M1158.4 358.7 L1171.2 361.3 L1190.4 359.6 L1203.2 362.5" fill="none" stroke="#94a3b8" stroke-width="0.9" opacity="0.20"/>
  <path d="M1382.2 216.0 L1388.8 219.5 L1374.4 208.8 L1378.1 201.6 L1370.4 198.0 L1374.1 162.0 L1382.4 161.1 L1395.2 168.2 L1408.0 169.9 L1433.6 169.0 L1491.2 157.5 L1510.4 147.6 L1518.3 140.4 L1521.0 136.8 L1522.7 115.2 L1542.4 94.5 L1548.8 93.6 L1561.6 95.6 L1593.6 92.2 L1619.2 94.4 L1644.8 93.4 L1659.8 90.0 L1669.2 82.8 L1676.7 72.0 L1676.4 57.6 L1668.9 43.2 L1645.1 28.8 L1645.8 25.2 L1629.3 10.8 L1635.1 3.6" fill="none" stroke="#94a3b8" stroke-width="0.9" opacity="0.20"/>
  <path d="M727.6 1080.0 L737.5 1076.4 L742.4 1072.4 L755.2 1074.3 L748.9 1072.8" fill="none" stroke="#94a3b8" stroke-width="0.9" opacity="0.22"/>
  <path d="M1315.8 1080.0 L1318.4 1077.9 L1324.0 1080.0" fill="none" stroke="#94a3b8" stroke-width="0.9" opacity="0.22"/>
  <path d="M1325.6 1080.0 L1329.3 1072.8 L1344.0 1064.5 L1362.7 1044.0 L1376.0 1039.3 L1395.2 1038.6 L1433.6 1043.7 L1446.4 1049.5 L1472.0 1053.9 L1487.7 1062.0 L1491.1 1069.2 L1497.6 1072.2 L1501.6 1080.0" fill="none" stroke="#94a3b8" stroke-width="0.9" opacity="0.22"/>
  <path d="M1658.1 1022.4 L1688.1 1033.2 L1696.0 1040.6 L1696.0 1052.8 L1689.6 1055.4 L1686.7 1062.0 L1690.4 1072.8 L1696.4 1080.0" fill="none" stroke="#94a3b8" stroke-width="0.9" opacity="0.22"/>
  <path d="M755.2 1074.3 L793.6 1067.2 L800.0 1064.4 L819.2 1065.1 L864.0 1061.6 L878.4 1058.4 L896.0 1051.9 L902.4 1047.4 L915.2 1033.3 L923.7 1029.6 L943.9 1011.6 L951.3 1008.0 L959.0 997.2 L973.0 990.0 L969.3 979.2 L978.5 972.0 L986.1 954.0 L978.7 950.4 L978.1 943.2 L988.4 932.4 L1004.8 925.0 L1014.6 914.4 L999.6 907.2 L1004.7 903.6 L1004.7 900.0 L998.7 889.2 L992.0 887.0 L998.7 889.2" fill="none" stroke="#94a3b8" stroke-width="0.9" opacity="0.22"/>
  <path d="M1331.2 1065.1 L1331.2 1066.4 L1333.3 1065.6 L1331.2 1065.1" fill="none" stroke="#94a3b8" stroke-width="0.9" opacity="0.22"/>
  <path d="M1433.8 892.8 L1428.7 889.2 L1440.0 896.5 L1446.4 897.5 L1465.6 913.4 L1484.8 920.3 L1520.7 928.8 L1504.4 946.8 L1506.8 954.0 L1504.0 957.8 L1507.5 961.2 L1504.2 972.0 L1516.8 984.0 L1529.6 987.9 L1536.0 992.0 L1555.2 995.9 L1580.8 1012.4 L1612.8 1017.1 L1632.0 1017.0 L1651.2 1020.2" fill="none" stroke="#94a3b8" stroke-width="0.9" opacity="0.22"/>
  <path d="M934.4 871.2 L928.9 867.6 L934.4 871.2 L938.6 878.4 L949.2 882.0 L992.0 887.0" fill="none" stroke="#94a3b8" stroke-width="0.9" opacity="0.22"/>
  <path d="M1401.9 874.8 L1395.2 873.2 L1414.4 880.0 L1428.7 889.2" fill="none" stroke="#94a3b8" stroke-width="0.9" opacity="0.22"/>
  <path d="M1203.3 777.6 L1214.2 788.4 L1235.2 796.5 L1247.3 806.4 L1262.2 813.6 L1273.6 828.5 L1280.0 829.5 L1288.7 835.2 L1312.0 844.2 L1318.4 851.4 L1350.4 859.5 L1376.0 873.5 L1395.2 873.2" fill="none" stroke="#94a3b8" stroke-width="0.9" opacity="0.22"/>
  <path d="M550.5 720.0 L576.0 713.5 L601.6 715.9 L614.4 720.5 L633.6 712.4 L652.8 713.3 L657.4 716.4 L656.3 720.0 L663.6 727.2 L672.0 732.1 L684.8 731.3 L691.2 728.7 L697.6 729.3 L716.8 736.7 L736.0 733.3 L748.8 736.7 L765.2 738.0 L758.0 748.8 L764.9 752.4 L787.2 756.6 L800.0 763.9 L819.2 769.7 L817.7 774.0 L832.0 777.8 L844.8 784.7 L876.8 781.4 L883.0 784.8 L873.6 795.6 L876.6 799.2 L875.8 802.8 L869.4 806.4 L871.3 810.0 L876.8 810.6 L889.6 805.7 L908.8 808.6 L918.9 813.6 L909.4 824.4 L917.3 828.0 L892.0 842.4 L901.7 846.0 L915.2 855.6 L921.6 857.4 L928.9 867.6" fill="none" stroke="#94a3b8" stroke-width="0.9" opacity="0.22"/>
  <path d="M1199.1 774.0 L1202.7 770.4 L1196.8 769.7 L1192.3 766.8 L1194.0 763.2 L1191.4 756.0 L1193.5 748.8 L1204.7 734.4 L1201.2 720.0 L1209.9 709.2 L1235.2 695.2 L1241.6 694.2 L1243.0 691.2 L1257.9 684.0 L1259.2 680.4 L1238.0 669.6 L1231.0 658.8 L1230.4 651.6 L1235.2 649.1 L1236.7 644.4 L1233.0 640.8 L1240.6 633.6 L1233.3 626.4 L1238.5 622.8 L1235.2 618.8 L1228.9 586.8" fill="none" stroke="#94a3b8" stroke-width="0.9" opacity="0.22"/>
  <path d="M525.2 626.4 L532.7 630.0 L532.8 633.6 L528.1 637.2 L535.5 640.8 L536.0 651.6 L524.8 662.4 L512.1 669.6 L508.0 684.0 L534.2 694.8 L536.7 705.6 L530.3 720.0 L537.6 722.0 L544.0 721.5" fill="none" stroke="#94a3b8" stroke-width="0.9" opacity="0.22"/>
  <path d="M473.7 597.6 L467.2 598.1 L473.7 597.6 L489.7 608.4 L505.6 613.8 L514.6 622.8 L518.4 623.9" fill="none" stroke="#94a3b8" stroke-width="0.9" opacity="0.22"/>
  <path d="M390.9 583.2 L384.9 579.6 L390.9 583.2 L422.4 591.7 L428.8 590.9 L435.2 594.3 L441.6 591.3 L454.4 592.8 L467.2 598.1" fill="none" stroke="#94a3b8" stroke-width="0.9" opacity="0.22"/>
  <path d="M435.2 589.8 L432.9 590.4 L435.2 592.1 L435.2 589.8" fill="none" stroke="#94a3b8" stroke-width="0.9" opacity="0.22"/>
  <path d="M1222.4 543.6 L1216.0 542.3 L1222.4 543.6 L1223.5 547.2 L1217.8 554.4 L1220.0 558.0 L1213.8 561.6 L1217.4 565.2 L1213.7 568.8 L1213.6 576.0 L1216.0 580.7 L1222.4 576.3 L1227.1 583.2" fill="none" stroke="#94a3b8" stroke-width="0.9" opacity="0.22"/>
  <path d="M377.8 576.0 L384.9 579.6" fill="none" stroke="#94a3b8" stroke-width="0.9" opacity="0.22"/>
  <path d="M345.7 554.4 L372.3 572.4" fill="none" stroke="#94a3b8" stroke-width="0.9" opacity="0.22"/>
  <path d="M1203.1 561.6 L1203.4 561.6" fill="none" stroke="#94a3b8" stroke-width="0.9" opacity="0.22"/>
  <path d="M342.8 550.8 L341.0 547.2 L326.4 540.3 L316.4 532.8 L315.2 529.2 L288.0 518.4 L294.4 517.2 L307.2 519.3 L358.4 519.7 L364.8 516.4 L378.6 514.8 L390.4 510.8 L407.9 486.0 L424.4 471.6 L428.8 469.9 L461.0 471.6" fill="none" stroke="#94a3b8" stroke-width="0.9" opacity="0.22"/>
  <path d="M1293.2 428.4 L1299.2 429.8 L1286.4 427.4 L1262.4 428.4 L1250.9 439.2 L1239.0 446.4 L1236.5 453.6 L1239.2 468.0 L1225.5 489.6 L1224.4 518.4 L1221.5 522.0 L1206.8 529.2 L1216.0 542.3" fill="none" stroke="#94a3b8" stroke-width="0.9" opacity="0.22"/>
  <path d="M666.2 489.6 L659.2 488.3 L675.3 493.2 L684.8 512.3 L689.2 514.8 L710.4 518.3 L723.2 518.4 L748.8 516.7 L776.9 511.2 L806.4 498.0 L832.0 489.3 L870.4 468.9 L882.5 457.2 L892.8 435.6 L900.1 428.4 L915.2 420.7 L928.0 417.3 L953.6 424.7 L979.2 423.4 L992.0 425.3 L1030.4 425.0 L1049.6 422.3 L1088.0 402.9 L1109.8 399.6 L1126.4 386.1 L1145.6 380.3 L1164.8 379.8 L1190.4 374.1 L1209.6 373.7 L1223.1 378.0 L1234.8 385.2 L1260.8 395.5 L1286.4 393.2 L1299.2 396.5 L1331.2 396.4 L1375.0 388.8 L1386.2 385.2 L1389.7 374.4 L1396.7 367.2 L1414.4 358.3 L1420.8 357.9 L1440.3 349.2 L1438.8 338.4 L1450.9 327.6 L1450.0 324.0 L1456.7 316.8 L1454.4 313.2 L1456.1 302.4 L1452.0 298.8 L1456.1 288.0 L1440.0 280.8 L1439.2 277.2 L1440.0 280.8" fill="none" stroke="#94a3b8" stroke-width="0.9" opacity="0.22"/>
  <path d="M1907.4 511.2 L1913.6 512.8" fill="none" stroke="#94a3b8" stroke-width="0.9" opacity="0.22"/>
  <path d="M1696.4 478.8 L1708.8 473.5 L1734.4 472.3 L1766.4 478.1 L1785.6 477.6 L1804.8 480.3 L1830.4 489.6 L1861.7 496.8 L1900.8 510.2" fill="none" stroke="#94a3b8" stroke-width="0.9" opacity="0.22"/>
  <path d="M1408.2 450.0 L1440.0 461.7 L1484.8 482.9 L1491.2 482.9 L1507.6 478.8 L1506.6 482.4 L1510.4 484.5 L1555.2 489.7 L1574.4 490.4 L1587.2 488.9 L1616.6 493.2 L1619.2 496.0 L1625.6 496.7 L1638.4 493.1 L1651.2 492.4 L1664.0 486.5 L1670.4 486.6 L1689.6 481.3" fill="none" stroke="#94a3b8" stroke-width="0.9" opacity="0.22"/>
  <path d="M652.8 482.4 L649.6 478.8 L653.8 486.0 L659.2 488.3" fill="none" stroke="#94a3b8" stroke-width="0.9" opacity="0.22"/>
  <path d="M1568.0 485.7 L1565.5 486.0 L1568.0 487.9 L1571.9 486.0 L1568.0 485.7" fill="none" stroke="#94a3b8" stroke-width="0.9" opacity="0.22"/>
  <path d="M1657.6 484.9 L1655.6 486.0 L1657.6 488.9 L1661.3 486.0 L1657.6 484.9" fill="none" stroke="#94a3b8" stroke-width="0.9" opacity="0.22"/>
  <path d="M1491.2 475.5 L1488.3 478.8 L1491.2 481.7 L1491.2 475.5" fill="none" stroke="#94a3b8" stroke-width="0.9" opacity="0.22"/>
  <path d="M499.6 471.6 L492.8 472.8 L518.4 471.4 L537.6 472.9 L544.0 475.3 L544.4 471.6 L556.8 471.4 L563.2 466.7 L569.6 467.8 L588.8 465.7 L608.0 466.8 L633.6 471.0 L646.4 470.7 L649.6 478.8" fill="none" stroke="#94a3b8" stroke-width="0.9" opacity="0.22"/>
  <path d="M467.2 472.2 L492.8 472.8" fill="none" stroke="#94a3b8" stroke-width="0.9" opacity="0.22"/>
  <path d="M1299.2 429.8 L1327.6 435.6 L1363.2 447.9 L1388.8 451.2 L1407.4 450.0" fill="none" stroke="#94a3b8" stroke-width="0.9" opacity="0.22"/>
  <path d="M1780.8 3.6 L1753.6 29.6 L1722.5 72.0 L1702.4 87.7 L1689.5 93.6 L1670.4 98.3 L1574.4 109.0 L1536.0 137.9 L1523.2 154.4 L1497.6 168.5 L1478.4 176.4 L1452.8 182.1 L1420.8 181.3 L1414.7 183.6 L1400.8 198.0 L1393.4 212.4 L1395.2 219.7 L1408.0 227.7 L1414.4 228.1 L1433.6 239.9 L1442.1 241.2 L1439.2 262.8 L1429.7 270.0 L1430.6 273.6 L1439.2 277.2" fill="none" stroke="#94a3b8" stroke-width="0.9" opacity="0.22"/>
  <path d="M833.0 1080.0 L864.0 1075.9 L880.4 1069.2 L896.1 1058.4 L929.5 1044.0 L943.1 1033.2 L954.0 1029.6 L966.2 1022.4 L966.9 1011.6 L977.0 1000.8 L987.8 997.2 L987.5 982.8 L997.6 968.4 L992.0 957.9 L992.0 949.6 L1026.4 925.2 L1038.6 907.2 L1030.5 903.6 L1030.4 898.5 L1014.8 892.8 L1013.5 889.2 L1017.6 879.7 L998.4 873.5 L972.8 870.3 L960.0 866.3 L966.8 867.6" fill="none" stroke="#94a3b8" stroke-width="0.8" opacity="0.23"/>
  <path d="M1163.3 1080.0 L1166.4 1069.2 L1177.1 1058.4 L1196.8 1045.8 L1248.0 1025.9 L1259.3 1018.8 L1269.9 1008.0 L1280.0 1002.4 L1312.0 995.4 L1331.2 996.6 L1392.5 1011.6 L1408.0 1022.9 L1427.2 1027.7 L1433.6 1027.6 L1441.6 1033.2 L1472.0 1042.7 L1485.4 1044.0" fill="none" stroke="#94a3b8" stroke-width="0.8" opacity="0.23"/>
  <path d="M1522.8 1080.0 L1518.8 1072.8 L1510.7 1069.2 L1509.1 1065.6 L1510.7 1069.2" fill="none" stroke="#94a3b8" stroke-width="0.8" opacity="0.23"/>
  <path d="M1484.8 950.4 L1484.7 946.8 L1484.8 950.4 L1468.6 957.6 L1465.2 964.8 L1464.4 982.8 L1467.3 990.0 L1497.6 1000.8 L1540.3 1022.4 L1551.8 1026.0 L1555.2 1029.9 L1580.8 1029.3 L1595.0 1033.2 L1606.4 1041.7 L1608.6 1054.8 L1613.1 1062.0 L1650.2 1080.0" fill="none" stroke="#94a3b8" stroke-width="0.8" opacity="0.23"/>
  <path d="M1509.1 1065.6 L1505.5 1062.0 L1505.0 1054.8 L1497.6 1046.3 L1491.2 1045.4" fill="none" stroke="#94a3b8" stroke-width="0.8" opacity="0.23"/>
  <path d="M1484.7 946.8 L1478.4 933.4 L1459.7 925.2" fill="none" stroke="#94a3b8" stroke-width="0.8" opacity="0.23"/>
  <path d="M1081.9 759.6 L1075.2 756.4 L1130.5 774.0 L1131.1 777.6 L1144.1 784.8 L1156.2 806.4 L1161.3 810.0 L1162.5 820.8 L1177.6 835.4 L1189.6 842.4 L1228.8 852.0 L1248.0 862.7 L1286.4 869.3 L1292.8 872.2 L1298.2 882.0 L1305.6 885.9 L1324.8 890.8 L1337.6 891.4 L1393.9 907.2 L1427.2 913.9 L1452.8 922.4" fill="none" stroke="#94a3b8" stroke-width="0.8" opacity="0.23"/>
  <path d="M896.2 792.0 L902.4 797.4 L934.4 805.7 L947.0 806.4 L927.1 820.8 L931.3 828.0 L919.7 835.2 L934.4 844.6 L940.8 852.4 L947.2 855.3 L951.0 864.0 L960.0 866.3" fill="none" stroke="#94a3b8" stroke-width="0.8" opacity="0.23"/>
  <path d="M1286.9 864.0 L1286.4 866.1 L1286.9 864.0" fill="none" stroke="#94a3b8" stroke-width="0.8" opacity="0.23"/>
  <path d="M892.6 788.4 L892.9 784.8 L883.2 778.5 L870.4 779.2 L857.9 774.0 L864.2 777.6" fill="none" stroke="#94a3b8" stroke-width="0.8" opacity="0.23"/>
  <path d="M851.4 770.4 L857.9 774.0" fill="none" stroke="#94a3b8" stroke-width="0.8" opacity="0.23"/>
  <path d="M704.3 720.0 L697.6 717.5 L704.3 720.0 L723.2 721.5 L742.4 719.3 L748.8 721.3 L755.2 727.3 L768.0 728.8 L787.2 726.7 L804.3 730.8 L785.9 745.2 L793.6 747.6 L806.4 755.7 L814.6 756.0 L828.3 759.6 L844.8 767.4" fill="none" stroke="#94a3b8" stroke-width="0.8" opacity="0.23"/>
  <path d="M1094.5 612.0 L1100.8 637.4 L1113.6 644.9 L1177.6 656.8 L1196.8 662.1 L1198.5 666.0 L1228.2 676.8 L1222.4 684.7 L1196.8 688.5 L1158.4 689.2 L1100.8 697.9 L1092.5 702.0 L1079.9 712.8 L1053.2 723.6 L1052.5 727.2 L1068.8 752.6 L1075.2 756.4" fill="none" stroke="#94a3b8" stroke-width="0.8" opacity="0.23"/>
  <path d="M659.3 698.4 L653.5 694.8 L661.8 702.0 L665.6 717.3 L670.2 720.0 L684.8 720.5 L697.6 717.5" fill="none" stroke="#94a3b8" stroke-width="0.8" opacity="0.23"/>
  <path d="M563.6 626.4 L576.0 635.5 L581.7 637.2 L578.1 640.8 L567.7 644.4 L557.8 655.2 L547.2 662.4 L538.2 676.8 L562.4 684.0 L570.9 694.8 L576.0 697.6 L601.6 697.9 L614.4 703.0 L633.0 694.8 L653.5 694.8" fill="none" stroke="#94a3b8" stroke-width="0.8" opacity="0.23"/>
  <path d="M422.9 572.4 L428.8 574.3 L448.0 574.1 L453.0 579.6 L467.2 585.0 L473.6 583.6 L480.0 586.7 L486.4 586.0 L498.3 597.6 L505.6 595.8 L518.4 598.8 L530.1 604.8 L534.6 612.0 L532.2 615.6 L550.4 618.0 L558.0 622.8" fill="none" stroke="#94a3b8" stroke-width="0.8" opacity="0.23"/>
  <path d="M1092.2 608.4 L1077.0 586.8 L1079.1 579.6 L1088.0 567.9 L1125.4 540.0 L1135.4 529.2 L1140.5 507.6 L1138.8 500.4 L1128.4 489.6 L1133.1 493.2" fill="none" stroke="#94a3b8" stroke-width="0.8" opacity="0.23"/>
  <path d="M525.1 504.0 L505.6 498.3 L480.0 487.7 L467.2 486.7 L448.0 488.7 L441.6 493.1 L435.2 511.2 L422.2 522.0 L384.0 533.4 L358.4 534.1 L348.3 536.4 L356.1 540.0 L378.8 558.0 L379.7 561.6 L396.8 572.1 L409.6 576.3 L421.2 572.4" fill="none" stroke="#94a3b8" stroke-width="0.8" opacity="0.23"/>
  <path d="M633.6 518.4 L652.8 522.8 L653.7 518.4 L659.2 517.1 L691.2 525.7 L736.0 532.6 L761.6 531.7 L793.6 526.3 L806.4 521.9 L828.6 518.4 L851.2 507.2 L880.7 496.8 L898.5 475.2 L940.8 435.3 L960.0 437.1 L972.8 433.8 L992.0 437.7 L1017.6 436.6 L1024.0 437.7 L1094.4 432.9 L1113.6 429.0 L1120.0 429.4 L1132.8 421.6 L1145.6 418.2 L1171.3 421.2" fill="none" stroke="#94a3b8" stroke-width="0.8" opacity="0.23"/>
  <path d="M531.2 505.1 L544.0 506.6 L556.8 504.8 L576.0 499.1 L578.4 496.8 L588.8 495.3 L601.6 485.5 L608.0 483.1 L619.4 486.0 L628.1 496.8 L625.2 514.8 L627.2 516.2" fill="none" stroke="#94a3b8" stroke-width="0.8" opacity="0.23"/>
  <path d="M1177.6 422.1 L1190.4 424.9 L1193.9 428.4 L1190.4 430.5 L1177.6 436.3 L1171.2 435.8 L1132.8 441.9 L1108.4 457.2 L1100.2 471.6 L1100.8 478.3 L1128.4 489.6" fill="none" stroke="#94a3b8" stroke-width="0.8" opacity="0.23"/>
  <path d="M1401.6 393.6 L1390.3 396.0 L1382.4 405.5 L1369.6 410.0 L1312.7 410.4 L1307.3 414.0 L1309.8 417.6 L1339.8 421.2 L1356.8 427.0 L1376.0 429.4 L1400.7 417.6 L1415.3 403.2 L1433.6 396.9 L1446.4 387.3 L1446.4 384.0 L1414.4 392.8 L1401.6 393.6" fill="none" stroke="#94a3b8" stroke-width="0.8" opacity="0.23"/>
  <path d="M1689.8 399.6 L1734.4 408.1 L1760.0 407.5 L1817.6 410.8 L1862.4 424.6 L1888.0 423.9 L1913.6 427.7" fill="none" stroke="#94a3b8" stroke-width="0.8" opacity="0.23"/>
  <path d="M1504.0 360.0 L1497.6 361.5 L1510.4 359.2 L1523.2 359.4 L1535.2 363.6 L1548.8 373.0 L1561.2 378.0 L1561.7 381.6 L1587.2 390.4 L1600.0 390.0 L1606.4 393.6 L1612.8 390.6 L1619.2 393.7 L1644.8 393.4 L1683.2 398.9" fill="none" stroke="#94a3b8" stroke-width="0.8" opacity="0.23"/>
  <path d="M1819.7 3.6 L1805.2 21.6 L1785.1 36.0 L1728.0 91.1 L1708.8 99.4 L1683.2 105.8 L1670.4 108.3 L1626.5 111.6 L1593.6 118.3 L1582.7 122.4 L1553.2 136.8 L1550.5 140.4 L1550.3 151.2 L1542.4 159.6 L1524.4 169.2 L1516.8 176.1 L1510.4 177.4 L1499.4 183.6 L1497.6 187.4 L1478.4 193.3 L1446.4 195.9 L1427.2 206.5 L1423.2 212.4 L1423.7 226.8 L1430.0 234.0 L1440.0 234.9 L1467.3 244.8 L1465.6 249.8 L1459.0 252.0 L1455.0 259.2 L1458.7 270.0 L1474.7 277.2 L1480.4 288.0 L1475.7 291.6 L1478.8 298.8 L1474.1 302.4 L1480.4 316.8 L1481.3 327.6 L1457.5 352.8 L1458.6 363.6 L1465.6 370.8 L1497.6 361.5" fill="none" stroke="#94a3b8" stroke-width="0.8" opacity="0.23"/>
  <path d="M1913.6 57.9 L1913.6 63.6" fill="none" stroke="#94a3b8" stroke-width="0.8" opacity="0.23"/>
  <path d="M893.4 1080.0 L972.8 1039.7 L991.5 1026.0 L992.1 1015.2 L1008.5 993.6 L1012.8 979.2 L1013.8 964.8 L1006.1 954.0 L1013.6 946.8 L1029.0 939.6 L1038.4 932.4 L1045.0 918.0 L1058.4 900.0 L1056.0 896.4 L1049.6 894.1 L1056.0 896.4" fill="none" stroke="#94a3b8" stroke-width="0.8" opacity="0.25"/>
  <path d="M1143.2 1080.0 L1140.6 1072.8 L1135.4 1069.2 L1136.2 1062.0 L1121.7 1044.0 L1104.0 993.6 L1104.6 986.4 L1119.2 975.6 L1145.6 965.3 L1203.2 949.5 L1222.4 947.4 L1254.4 950.5 L1305.6 963.7 L1363.2 983.9 L1382.4 984.5 L1395.2 978.5 L1416.0 961.2 L1440.0 952.9 L1452.8 950.6 L1468.1 943.2 L1452.8 939.8 L1446.4 934.9 L1440.0 934.4 L1427.2 929.0 L1395.6 921.6" fill="none" stroke="#94a3b8" stroke-width="0.8" opacity="0.25"/>
  <path d="M1549.4 1062.0 L1522.4 1054.8 L1531.3 1062.0 L1535.3 1072.8 L1542.4 1074.0 L1550.0 1080.0" fill="none" stroke="#94a3b8" stroke-width="0.8" opacity="0.25"/>
  <path d="M1555.2 1063.8 L1606.4 1078.6 L1616.7 1080.0" fill="none" stroke="#94a3b8" stroke-width="0.8" opacity="0.25"/>
  <path d="M1369.3 918.0 L1286.4 909.4 L1273.6 906.6 L1241.6 896.5 L1222.4 883.1 L1209.6 882.1 L1209.6 878.1 L1177.6 875.1 L1152.0 867.9 L1151.6 864.0 L1136.8 856.8 L1130.3 849.6 L1132.9 853.2" fill="none" stroke="#94a3b8" stroke-width="0.8" opacity="0.25"/>
  <path d="M1376.0 918.4 L1388.8 920.5" fill="none" stroke="#94a3b8" stroke-width="0.8" opacity="0.25"/>
  <path d="M966.5 810.0 L963.6 806.4 L966.5 810.0 L960.3 817.2 L939.4 831.6 L963.2 842.4 L967.3 846.0 L966.4 851.2 L998.4 861.7 L1011.2 870.8 L1017.6 871.9 L1024.0 887.6 L1049.6 894.1" fill="none" stroke="#94a3b8" stroke-width="0.8" opacity="0.25"/>
  <path d="M1130.3 849.6 L1125.9 838.8 L1120.0 835.2 L1118.3 828.0 L1120.1 831.6" fill="none" stroke="#94a3b8" stroke-width="0.8" opacity="0.25"/>
  <path d="M1118.3 828.0 L1122.4 810.0 L1120.0 806.5 L1094.4 795.1 L1024.0 770.8 L1021.3 763.2 L1016.9 759.6 L1013.1 745.2 L1016.9 738.0 L1036.0 723.6 L1033.6 705.6 L1049.6 693.3 L1062.4 689.1 L1088.0 688.6 L1094.4 683.2 L1132.8 674.5 L1139.2 675.3 L1147.8 669.6 L1107.2 660.4 L1056.0 663.8 L1044.0 666.0 L1050.1 666.0" fill="none" stroke="#94a3b8" stroke-width="0.8" opacity="0.25"/>
  <path d="M963.6 806.4 L962.6 799.2 L960.0 798.0 L953.6 799.8 L921.6 796.9 L902.7 792.0 L899.5 788.4 L902.7 792.0" fill="none" stroke="#94a3b8" stroke-width="0.8" opacity="0.25"/>
  <path d="M899.5 788.4 L898.6 784.8 L883.2 774.0 L889.7 777.6" fill="none" stroke="#94a3b8" stroke-width="0.8" opacity="0.25"/>
  <path d="M883.2 774.0 L876.8 769.9 L870.4 773.0 L864.0 772.6 L854.7 766.8 L851.2 758.1 L832.0 751.2 L838.6 752.4" fill="none" stroke="#94a3b8" stroke-width="0.8" opacity="0.25"/>
  <path d="M486.7 511.2 L480.0 508.3 L473.6 509.0 L454.4 535.0 L443.0 543.6 L428.8 547.3 L409.6 547.6 L386.2 550.8 L398.5 558.0 L399.2 561.6 L403.2 564.1 L422.4 558.0 L435.2 564.0 L454.4 560.7 L456.4 565.2 L467.2 569.4 L473.6 568.9 L480.0 573.0 L486.4 573.5 L492.8 578.9 L501.5 579.6 L505.6 584.1 L538.8 590.4 L537.8 594.0 L545.9 597.6 L556.8 606.3 L569.6 610.0 L598.9 633.6 L599.8 637.2 L590.0 651.6 L578.5 658.8 L567.6 669.6 L559.4 673.2 L563.2 676.0 L577.5 676.8 L595.2 685.2 L614.4 688.7 L633.6 688.1 L659.2 690.0 L670.1 702.0 L680.1 705.6 L684.8 709.5 L691.2 706.7 L723.2 705.6 L768.0 712.7 L812.8 715.1 L825.6 717.4 L829.1 720.0 L828.8 723.6 L836.3 727.2 L836.0 730.8 L805.7 745.2 L812.8 748.6 L832.0 751.2" fill="none" stroke="#94a3b8" stroke-width="0.8" opacity="0.25"/>
  <path d="M979.3 446.4 L972.8 448.0 L979.3 446.4 L992.0 450.4 L1004.8 451.6 L1068.8 446.0 L1088.7 446.4 L1066.8 468.0 L1055.9 471.6 L1042.3 482.4 L1033.5 496.8 L1025.7 518.4 L1031.3 536.4 L1043.2 543.9 L1065.4 550.8 L1073.6 558.0 L1068.8 567.9 L1043.2 579.8 L1030.4 579.6 L1011.2 582.6 L998.4 593.3 L985.6 600.1 L970.5 601.2 L958.1 612.0 L960.1 619.2 L956.0 626.4 L957.2 637.2 L960.3 640.8 L1019.6 662.4 L1044.0 666.0" fill="none" stroke="#94a3b8" stroke-width="0.8" opacity="0.25"/>
  <path d="M492.8 513.2 L518.4 518.5 L523.8 522.0 L525.0 525.6 L517.1 540.0 L517.2 550.8 L520.2 565.2 L531.2 574.5 L576.0 582.0 L601.6 582.7 L651.3 579.6 L676.8 572.4 L694.5 558.0 L704.0 553.1 L710.4 543.6 L716.8 541.7 L780.8 541.0 L793.6 538.9 L806.4 534.4 L838.4 530.4 L852.9 525.6 L899.8 504.0 L935.7 471.6 L960.5 453.6 L972.8 448.0" fill="none" stroke="#94a3b8" stroke-width="0.8" opacity="0.25"/>
  <path d="M1786.0 316.8 L1811.2 330.8 L1830.4 335.3 L1849.6 335.8 L1875.2 333.6 L1900.8 325.2 L1913.6 316.6" fill="none" stroke="#94a3b8" stroke-width="0.8" opacity="0.25"/>
  <path d="M1478.5 241.2 L1472.0 237.6 L1478.5 241.2 L1475.1 248.4 L1475.9 255.6 L1478.4 258.2 L1499.9 266.4 L1510.7 284.4 L1497.1 316.8 L1503.2 320.4 L1501.8 324.0 L1504.0 325.2 L1516.8 316.7 L1542.4 309.6 L1548.8 305.8 L1555.2 308.2 L1568.0 307.5 L1587.2 309.4 L1606.4 303.8 L1670.4 299.3 L1689.6 302.8 L1700.8 302.4 L1728.0 309.8 L1760.0 306.4 L1766.4 307.0 L1779.1 313.2 L1772.9 309.6" fill="none" stroke="#94a3b8" stroke-width="0.8" opacity="0.25"/>
  <path d="M1459.2 234.0 L1452.8 230.9 L1472.0 237.6" fill="none" stroke="#94a3b8" stroke-width="0.8" opacity="0.25"/>
  <path d="M1852.4 3.6 L1833.2 25.2 L1816.4 36.0 L1778.8 72.0 L1740.8 96.2 L1708.8 109.2 L1683.2 115.5 L1670.4 115.5 L1657.6 121.7 L1632.0 124.6 L1600.0 133.4 L1574.4 146.1 L1566.7 165.6 L1548.8 172.7 L1541.2 180.0 L1517.6 190.8 L1512.0 194.4 L1510.4 198.7 L1484.8 205.9 L1454.8 208.8 L1450.4 212.4 L1448.1 219.6 L1449.1 226.8 L1452.8 230.9" fill="none" stroke="#94a3b8" stroke-width="0.8" opacity="0.25"/>
  <path d="M1913.6 39.5 L1896.3 61.2 L1887.2 79.2 L1890.6 86.4 L1884.6 93.6 L1907.2 120.6 L1913.6 125.0" fill="none" stroke="#94a3b8" stroke-width="0.8" opacity="0.25"/>
  <path d="M932.3 1080.0 L953.2 1065.6 L966.4 1062.3 L979.0 1054.8 L984.3 1047.6 L992.0 1044.6 L994.5 1040.4 L1006.5 1033.2 L1017.3 1015.2 L1030.4 1009.3 L1036.8 1009.6 L1049.7 1015.2" fill="none" stroke="#94a3b8" stroke-width="0.8" opacity="0.26"/>
  <path d="M1045.6 1080.0 L1059.3 1076.4 L1068.8 1071.3 L1088.0 1073.4 L1101.7 1072.8 L1088.0 1062.2 L1081.0 1040.4 L1056.1 1018.8" fill="none" stroke="#94a3b8" stroke-width="0.8" opacity="0.26"/>
  <path d="M1269.4 918.0 L1216.0 902.7 L1209.6 902.4 L1203.4 907.2 L1209.6 911.5 L1255.1 921.6 L1273.6 933.7 L1292.8 938.1 L1324.8 940.8 L1395.2 941.1 L1406.6 939.6 L1397.6 936.0 L1369.6 930.9 L1292.8 923.6 L1269.4 918.0" fill="none" stroke="#94a3b8" stroke-width="0.8" opacity="0.26"/>
  <path d="M1005.1 853.2 L1017.6 859.6 L1036.8 864.9 L1040.7 864.0 L1049.6 859.2 L1076.7 831.6 L1074.0 828.0 L1050.3 820.8 L1017.9 806.4" fill="none" stroke="#94a3b8" stroke-width="0.8" opacity="0.26"/>
  <path d="M909.2 781.2 L904.6 777.6 L909.2 781.2 L908.8 785.8 L915.2 787.9 L976.0 792.0 L979.1 795.6 L977.6 810.0 L957.3 824.4 L956.3 828.0 L972.8 839.7 L992.0 849.4 L998.4 850.4" fill="none" stroke="#94a3b8" stroke-width="0.8" opacity="0.26"/>
  <path d="M1024.1 673.2 L1017.6 672.8 L1024.1 673.2 L1030.5 676.8 L1023.0 687.6 L1019.8 698.4 L1011.2 701.4 L1006.4 705.6 L1010.5 709.2 L1012.6 716.4 L1006.5 723.6 L998.4 724.4 L991.9 738.0 L987.2 741.6 L980.5 766.8 L986.4 784.8 L1011.2 804.0" fill="none" stroke="#94a3b8" stroke-width="0.8" opacity="0.26"/>
  <path d="M877.3 763.2 L904.6 777.6" fill="none" stroke="#94a3b8" stroke-width="0.8" opacity="0.26"/>
  <path d="M851.2 709.2 L847.1 705.6 L854.1 716.4 L855.8 727.2 L841.1 738.0 L839.3 745.2 L854.9 756.0 L857.6 761.5 L864.0 765.7 L875.8 763.2" fill="none" stroke="#94a3b8" stroke-width="0.8" opacity="0.26"/>
  <path d="M761.7 694.8 L755.2 694.2 L774.4 698.8 L793.6 698.6 L800.0 701.0 L847.1 705.6" fill="none" stroke="#94a3b8" stroke-width="0.8" opacity="0.26"/>
  <path d="M1024.1 471.6 L1022.2 475.2 L1024.1 471.6 L1036.0 464.4 L1030.4 462.5 L992.0 462.2 L984.1 464.4 L956.4 482.4 L937.1 496.8 L934.4 501.7 L921.6 509.9 L885.6 529.2 L846.6 543.6 L819.2 547.0 L806.4 546.6 L780.8 550.9 L736.0 552.2 L731.9 554.4 L722.8 568.8 L716.8 572.6 L672.0 586.4 L627.2 592.1 L595.2 594.4 L569.6 594.0 L597.7 601.2 L611.9 615.6 L609.1 633.6 L614.9 644.4 L614.4 650.2 L611.5 655.2 L604.5 658.8 L597.8 666.0 L599.6 669.6 L614.4 678.3 L633.6 682.5 L646.4 682.2 L672.0 692.5 L691.2 693.9 L704.0 690.3 L710.4 690.4 L736.0 691.2 L755.2 694.2" fill="none" stroke="#94a3b8" stroke-width="0.8" opacity="0.26"/>
  <path d="M1022.2 475.2 L1004.2 496.8 L1005.0 511.2 L1008.8 529.2 L1032.3 554.4 L1031.9 561.6 L1024.0 565.3 L1011.2 576.8 L979.2 583.7 L966.4 590.2 L960.0 590.0 L946.5 594.0 L935.7 601.2 L915.2 622.9 L911.8 633.6 L925.2 658.8 L939.9 669.6 L953.6 673.3 L966.4 679.9 L979.2 679.9 L1017.6 672.8" fill="none" stroke="#94a3b8" stroke-width="0.8" opacity="0.26"/>
  <path d="M1504.2 252.0 L1519.0 255.6 L1537.8 266.4 L1538.9 273.6 L1533.8 280.8 L1536.2 284.4 L1529.6 300.1 L1561.6 293.6 L1568.0 296.0 L1600.0 290.8 L1632.0 290.9 L1651.2 285.3 L1657.6 285.0 L1664.0 288.2 L1676.8 287.5 L1696.0 282.9 L1702.4 278.3 L1707.8 277.2 L1708.8 272.8 L1715.2 272.8 L1728.0 269.5 L1740.8 269.1 L1766.4 276.3 L1785.6 293.0 L1798.4 298.8 L1804.8 298.4 L1819.5 284.4 L1830.4 277.5 L1862.4 269.1 L1875.2 267.7 L1875.2 264.7 L1859.8 255.6 L1858.1 226.8 L1868.8 219.2 L1894.4 215.4 L1907.1 208.8 L1897.1 176.4 L1865.5 154.8 L1843.2 133.2" fill="none" stroke="#94a3b8" stroke-width="0.8" opacity="0.26"/>
  <path d="M1876.1 3.6 L1875.7 10.8 L1870.9 18.0 L1864.5 21.6 L1830.8 54.0 L1794.5 82.8 L1728.0 114.1 L1606.4 148.5 L1601.1 151.2 L1594.2 162.0 L1579.7 172.8 L1538.4 190.8 L1539.8 198.0 L1529.6 209.0 L1509.6 223.2 L1507.6 234.0 L1497.7 241.2 L1495.4 248.4 L1497.6 249.6" fill="none" stroke="#94a3b8" stroke-width="0.8" opacity="0.26"/>
  <path d="M1840.4 129.6 L1842.8 97.2 L1865.1 72.0 L1877.4 46.8 L1898.8 25.2 L1893.6 14.4 L1897.6 10.8 L1898.6 3.6" fill="none" stroke="#94a3b8" stroke-width="0.8" opacity="0.26"/>
  <path d="M964.2 1080.0 L980.2 1072.8 L1004.8 1046.3 L1017.6 1042.0 L1030.4 1042.2 L1035.4 1058.4 L1033.9 1062.0 L1024.0 1068.1 L1011.2 1072.5 L1002.4 1080.0 L1004.8 1076.3" fill="none" stroke="#94a3b8" stroke-width="0.7" opacity="0.28"/>
  <path d="M896.2 770.4 L890.6 766.8 L902.4 774.2 L915.2 776.9 L940.8 777.0 L953.6 780.1 L959.8 777.6 L966.4 746.4 L983.9 727.2 L985.1 720.0 L972.8 697.3 L940.8 693.5 L928.7 687.6 L934.6 691.2" fill="none" stroke="#94a3b8" stroke-width="0.7" opacity="0.28"/>
  <path d="M882.9 763.2 L870.9 759.6 L867.9 756.0 L871.2 752.4 L869.2 738.0 L876.6 727.2 L884.8 723.6 L885.6 720.0 L876.8 706.3 L864.0 696.1 L851.2 690.7 L793.6 686.3 L768.4 680.4" fill="none" stroke="#94a3b8" stroke-width="0.7" opacity="0.28"/>
  <path d="M909.0 669.6 L910.2 673.2 L917.9 676.8 L928.7 687.6" fill="none" stroke="#94a3b8" stroke-width="0.7" opacity="0.28"/>
  <path d="M640.2 669.6 L665.6 675.8 L704.0 676.4 L716.8 678.6 L729.6 676.1 L761.6 679.7" fill="none" stroke="#94a3b8" stroke-width="0.7" opacity="0.28"/>
  <path d="M819.4 558.0 L812.8 556.6 L806.4 559.7 L787.2 562.7 L760.5 561.6 L743.7 572.4 L742.4 577.6 L729.6 584.2 L707.2 590.4 L697.6 590.6 L672.0 596.3 L653.9 597.6 L649.9 601.2 L650.9 604.8 L657.6 612.0 L659.2 624.2 L666.4 637.2 L661.3 644.4 L645.6 651.6 L639.4 658.8 L625.2 666.0 L633.6 668.1" fill="none" stroke="#94a3b8" stroke-width="0.7" opacity="0.28"/>
  <path d="M906.4 666.0 L895.3 655.2 L886.4 640.8 L883.1 619.2 L888.7 604.8 L915.2 585.5 L934.2 579.6 L953.6 569.3 L995.3 565.2 L1003.6 558.0 L1006.8 550.8 L992.0 536.4" fill="none" stroke="#94a3b8" stroke-width="0.7" opacity="0.28"/>
  <path d="M825.6 559.2 L851.2 556.0 L870.4 547.8 L883.2 546.6 L889.6 542.7 L902.4 539.3 L914.4 529.2 L924.5 525.6 L931.7 518.4 L944.7 514.8 L947.6 507.6 L985.6 486.6 L988.1 489.6 L988.9 504.0 L984.8 514.8 L989.3 532.8" fill="none" stroke="#94a3b8" stroke-width="0.7" opacity="0.28"/>
  <path d="M998.4 476.2 L990.2 482.4 L992.0 483.6 L999.9 482.4 L998.4 476.2" fill="none" stroke="#94a3b8" stroke-width="0.7" opacity="0.28"/>
  <path d="M1004.8 471.2 L1002.8 471.6 L1004.8 472.8 L1012.8 471.6 L1004.8 471.2 L1012.8 471.6" fill="none" stroke="#94a3b8" stroke-width="0.7" opacity="0.28"/>
  <path d="M1779.4 151.2 L1757.9 136.8 L1753.3 126.0 L1740.8 121.2 L1715.2 128.5 L1708.8 133.4 L1683.2 138.9 L1670.4 145.2 L1664.0 145.3 L1650.4 151.2 L1625.6 158.0 L1621.0 165.6 L1606.4 171.8 L1602.2 176.4 L1593.6 178.7 L1587.2 184.1 L1580.8 184.9 L1561.6 193.6 L1563.9 198.0 L1552.5 205.2 L1553.0 208.8 L1547.3 216.0 L1547.6 223.2 L1534.1 241.2 L1536.5 244.8 L1558.4 255.6 L1565.3 270.0 L1559.6 273.6 L1561.6 277.5 L1574.4 266.8 L1593.6 261.2 L1632.0 258.3 L1676.8 247.0 L1696.0 244.4 L1753.6 251.7 L1772.8 256.5 L1798.4 273.6 L1811.2 271.4 L1815.2 262.8 L1832.5 259.2 L1833.6 255.6 L1823.6 244.8 L1818.9 234.0 L1816.6 223.2 L1820.0 212.4 L1827.5 201.6 L1846.5 190.8 L1796.1 169.2 L1785.6 154.1" fill="none" stroke="#94a3b8" stroke-width="0.7" opacity="0.28"/>
  <path d="M947.2 714.6 L921.6 709.6 L915.2 709.4 L910.3 712.8 L913.1 738.0 L904.1 756.0 L921.6 765.2 L934.4 765.4 L942.5 763.2 L940.5 756.0 L944.6 752.4 L947.2 741.9 L963.7 727.2 L959.4 720.0 L947.2 714.6" fill="none" stroke="#94a3b8" stroke-width="0.7" opacity="0.29"/>
  <path d="M876.9 655.2 L869.7 651.6 L866.7 640.8 L867.3 608.4 L873.9 597.6 L889.6 584.1 L921.6 565.2 L928.0 565.7 L953.6 552.7 L980.5 554.4 L982.7 547.2 L970.5 540.0 L966.4 521.3 L953.6 525.8 L940.8 534.4 L926.8 540.0 L915.2 548.9 L889.6 556.8 L876.8 558.1 L857.6 564.1 L832.0 567.8 L774.4 570.8 L767.6 576.0 L768.0 583.7 L736.0 595.3 L722.2 597.6 L719.0 601.2 L716.6 626.4 L710.0 640.8 L713.3 658.8 L716.8 661.9 L736.0 661.1 L755.2 663.5 L823.6 676.8 L857.6 685.6 L883.2 686.9 L883.2 673.9 L889.9 662.4 L883.2 660.7 L889.9 662.4" fill="none" stroke="#94a3b8" stroke-width="0.7" opacity="0.29"/>
  <path d="M876.8 655.7 L876.2 658.8 L883.2 660.7" fill="none" stroke="#94a3b8" stroke-width="0.7" opacity="0.29"/>
  <path d="M1741.2 187.2 L1747.2 188.5 L1721.6 177.5 L1689.6 153.6 L1683.2 153.1 L1655.6 162.0 L1632.0 177.5 L1619.2 184.3 L1612.8 185.6 L1606.4 193.4 L1589.3 198.0 L1578.2 212.4 L1576.7 226.8 L1564.3 241.2 L1568.0 246.1 L1574.4 247.7 L1580.8 248.7 L1600.0 243.2 L1619.2 243.4 L1664.0 231.2 L1683.2 230.8 L1708.8 230.6 L1728.0 233.5 L1747.2 234.2 L1785.6 244.0 L1784.4 226.8 L1798.5 208.8 L1800.4 201.6 L1798.6 198.0 L1792.0 197.5 L1798.6 198.0" fill="none" stroke="#94a3b8" stroke-width="0.7" opacity="0.29"/>
  <path d="M1747.2 188.5 L1772.8 195.1 L1792.0 197.5" fill="none" stroke="#94a3b8" stroke-width="0.7" opacity="0.29"/>
  <path d="M844.8 570.1 L800.0 574.3 L780.8 579.2 L780.4 586.8 L775.2 590.4 L782.2 608.4 L779.9 615.6 L764.4 630.0 L750.3 637.2 L744.0 644.4 L746.2 648.0 L797.5 658.8 L800.0 662.8 L844.8 672.3 L851.8 669.6 L862.8 658.8 L863.4 655.2 L850.9 640.8 L853.2 630.0 L848.1 626.4 L854.8 615.6 L843.3 608.4 L844.7 597.6 L864.0 591.0 L870.4 577.4 L890.3 565.2 L883.2 563.8 L851.7 568.8" fill="none" stroke="#94a3b8" stroke-width="0.7" opacity="0.31"/>
  <path d="M1760.0 219.6 L1753.6 219.9 L1760.0 219.6 L1765.7 212.4 L1772.4 208.8 L1726.7 198.0 L1708.8 191.1 L1690.0 180.0 L1676.8 168.8 L1667.8 172.8 L1651.2 185.6 L1607.5 205.2 L1610.6 212.4 L1609.6 223.2 L1612.8 226.4 L1625.6 224.6 L1664.0 214.1 L1702.5 216.0" fill="none" stroke="#94a3b8" stroke-width="0.7" opacity="0.31"/>
  <path d="M1708.8 217.1 L1728.0 216.7 L1740.8 219.5 L1753.6 219.9" fill="none" stroke="#94a3b8" stroke-width="0.7" opacity="0.31"/>
  <path d="M832.0 620.3 L796.9 640.8 L819.2 650.3 L838.4 645.3 L843.7 640.8 L837.5 633.6 L839.0 630.0 L832.0 620.3" fill="none" stroke="#94a3b8" stroke-width="0.6" opacity="0.32"/>
  <path d="M1677.5 194.4 L1670.4 193.9 L1667.3 198.0 L1674.0 198.0 L1676.8 196.0 L1683.3 198.0 L1677.5 194.4 L1683.3 198.0" fill="none" stroke="#94a3b8" stroke-width="0.6" opacity="0.32"/>
</svg>
